STARTFONT 2.1
COMMENT GRID 0010 0010 0200 0200
FONT a12lucid
SIZE 10 75 75
FONTBOUNDINGBOX 11 8 0 -1
STARTPROPERTIES 3
FONT_ASCENT 7
FONT_DESCENT 2
DEFAULT_CHAR 32
ENDPROPERTIES
COMMENT GUIDELINES -2 0 6 7 9 DONE
COMMENT WIDTHERR -71 17
CHARS 244
STARTCHAR Upsilon
ENCODING -1 1
SWIDTH 638 0
DWIDTH 7 0
BBX 5 5 1 0
BITMAP
88
50
20
20
20
ENDCHAR
STARTCHAR Gamma
ENCODING -1 1
SWIDTH 512 0
DWIDTH 5 0
BBX 4 5 1 0
BITMAP
F0
80
80
80
80
ENDCHAR
STARTCHAR Delta
ENCODING -1 1
SWIDTH 663 0
DWIDTH 7 0
BBX 5 5 1 0
BITMAP
20
50
50
88
F8
ENDCHAR
STARTCHAR Theta
ENCODING -1 1
SWIDTH 777 0
DWIDTH 8 0
BBX 6 5 1 0
BITMAP
78
84
B4
84
78
ENDCHAR
STARTCHAR Lambda
ENCODING -1 1
SWIDTH 651 0
DWIDTH 7 0
BBX 5 5 1 0
BITMAP
20
50
50
88
88
ENDCHAR
STARTCHAR Xi
ENCODING -1 1
SWIDTH 608 0
DWIDTH 6 0
BBX 5 5 1 0
BITMAP
F8
00
70
00
F8
ENDCHAR
STARTCHAR Pi
ENCODING -1 1
SWIDTH 759 0
DWIDTH 8 0
BBX 6 5 1 0
BITMAP
FC
48
48
48
48
ENDCHAR
STARTCHAR Sigma
ENCODING -1 1
SWIDTH 642 0
DWIDTH 7 0
BBX 5 5 1 0
BITMAP
F8
40
20
40
F8
ENDCHAR
STARTCHAR Phi
ENCODING -1 1
SWIDTH 657 0
DWIDTH 7 0
BBX 7 5 0 0
BITMAP
10
7C
92
7C
10
ENDCHAR
STARTCHAR Psi
ENCODING -1 1
SWIDTH 729 0
DWIDTH 7 0
BBX 7 5 0 0
BITMAP
92
54
38
10
10
ENDCHAR
STARTCHAR Omega
ENCODING -1 1
SWIDTH 783 0
DWIDTH 8 0
BBX 10 5 1 0
BITMAP
7C00
8200
8200
4400
EE00
ENDCHAR
STARTCHAR oe
ENCODING 250
SWIDTH 930 0
DWIDTH 9 0
BBX 7 4 1 0
BITMAP
6C
9E
90
6E
ENDCHAR
STARTCHAR oslash
ENCODING 249
SWIDTH 614 0
DWIDTH 6 0
BBX 6 4 0 0
BITMAP
34
58
68
B0
ENDCHAR
STARTCHAR germandbls
ENCODING 251
SWIDTH 598 0
DWIDTH 6 0
BBX 5 6 1 0
BITMAP
60
90
A0
90
88
B0
ENDCHAR
STARTCHAR ae
ENCODING 241
SWIDTH 853 0
DWIDTH 9 0
BBX 7 4 1 0
BITMAP
6C
1E
F0
6E
ENDCHAR
STARTCHAR ff
ENCODING -1 1
SWIDTH 705 0
DWIDTH 7 0
BBX 7 6 0 0
BITMAP
36
48
FE
48
48
48
ENDCHAR
STARTCHAR ffi
ENCODING -1 1
SWIDTH 982 0
DWIDTH 10 0
BBX 8 6 1 0
BITMAP
37
48
FF
49
49
49
ENDCHAR
STARTCHAR ffl
ENCODING -1 1
SWIDTH 982 0
DWIDTH 10 0
BBX 8 6 1 0
BITMAP
37
49
FD
49
49
49
ENDCHAR
STARTCHAR dotlessi
ENCODING 245
SWIDTH 289 0
DWIDTH 3 0
BBX 1 4 1 0
BITMAP
80
80
80
80
ENDCHAR
STARTCHAR lslash
ENCODING 248
SWIDTH 289 0
DWIDTH 5 0
BBX 5 6 0 0
BITMAP
20
20
30
60
20
20
ENDCHAR
STARTCHAR dotlessj
ENCODING -1 1
SWIDTH 304 0
DWIDTH 3 0
BBX 2 5 0 -1
BITMAP
40
40
40
40
80
ENDCHAR
STARTCHAR OE
ENCODING 234
SWIDTH 1000 0
DWIDTH 10 0
BBX 8 5 1 0
BITMAP
7F
88
8E
88
7F
ENDCHAR
STARTCHAR Oslash
ENCODING 233
SWIDTH 777 0
DWIDTH 8 0
BBX 6 7 1 -1
BITMAP
04
78
8C
B4
C4
78
80
ENDCHAR
STARTCHAR Lslash
ENCODING 232
SWIDTH 534 0
DWIDTH 6 0
BBX 6 5 0 0
BITMAP
20
30
60
20
3C
ENDCHAR
STARTCHAR onesuperior
ENCODING -1 1
SWIDTH 422 0
DWIDTH 5 0
BBX 3 5 0 1
BITMAP
20
E0
20
20
20
ENDCHAR
STARTCHAR twosuperior
ENCODING -1 1
SWIDTH 422 0
DWIDTH 5 0
BBX 4 5 1 1
BITMAP
C0
20
40
80
E0
ENDCHAR
STARTCHAR threesuperior
ENCODING -1 1
SWIDTH 422 0
DWIDTH 5 0
BBX 3 5 1 1
BITMAP
C0
20
C0
20
C0
ENDCHAR
STARTCHAR onehalf
ENCODING -1 1
SWIDTH 801 0
DWIDTH 9 0
BBX 9 6 0 0
BITMAP
2200
E400
2E00
3300
2400
4F00
ENDCHAR
STARTCHAR onequarter
ENCODING -1 1
SWIDTH 801 0
DWIDTH 9 0
BBX 9 6 0 0
BITMAP
2200
E400
2900
3700
2F80
4100
ENDCHAR
STARTCHAR ordfeminine
ENCODING 227
SWIDTH 422 0
DWIDTH 5 0
BBX 4 4 1 1
BITMAP
C0
60
A0
50
ENDCHAR
STARTCHAR AE
ENCODING 225
SWIDTH 907 0
DWIDTH 9 0
BBX 7 5 1 0
BITMAP
3E
50
5C
F0
9E
ENDCHAR
STARTCHAR ordmasculine
ENCODING 235
SWIDTH 422 0
DWIDTH 5 0
BBX 4 4 1 1
BITMAP
60
90
90
60
ENDCHAR
STARTCHAR degree
ENCODING -1 1
SWIDTH 277 0
DWIDTH 3 0
BBX 3 3 0 3
BITMAP
40
A0
40
ENDCHAR
STARTCHAR copyright
ENCODING -1 1
SWIDTH 855 0
DWIDTH 9 0
BBX 7 5 1 0
BITMAP
7C
9A
A2
9A
7C
ENDCHAR
STARTCHAR mu
ENCODING -1 1
SWIDTH 627 0
DWIDTH 6 0
BBX 4 5 1 -1
BITMAP
90
90
B0
D0
80
ENDCHAR
STARTCHAR registered
ENCODING -1 1
SWIDTH 633 0
DWIDTH 7 0
BBX 7 5 0 0
BITMAP
7C
BA
B2
AA
7C
ENDCHAR
STARTCHAR trademark
ENCODING -1 1
SWIDTH 807 0
DWIDTH 9 0
BBX 8 3 1 2
BITMAP
FB
55
55
ENDCHAR
STARTCHAR minus
ENCODING -1 1
SWIDTH 633 0
DWIDTH 6 0
BBX 5 1 1 2
BITMAP
F8
ENDCHAR
STARTCHAR plusminus
ENCODING -1 1
SWIDTH 633 0
DWIDTH 6 0
BBX 5 4 1 1
BITMAP
20
F8
20
F8
ENDCHAR
STARTCHAR multiply
ENCODING -1 1
SWIDTH 633 0
DWIDTH 6 0
BBX 5 5 1 0
BITMAP
88
50
20
50
88
ENDCHAR
STARTCHAR divide
ENCODING -1 1
SWIDTH 633 0
DWIDTH 6 0
BBX 5 5 1 0
BITMAP
20
00
F8
00
20
ENDCHAR
STARTCHAR TeXtext32
ENCODING -1 1
SWIDTH 289 0
DWIDTH 3 0
BBX 5 1 0 3
BITMAP
E0
ENDCHAR
STARTCHAR Eth
ENCODING -1 1
SWIDTH 749 0
DWIDTH 8 0
BBX 7 5 0 0
BITMAP
78
44
F2
44
78
ENDCHAR
STARTCHAR Thorn
ENCODING -1 1
SWIDTH 553 0
DWIDTH 6 0
BBX 4 5 1 0
BITMAP
80
E0
90
E0
80
ENDCHAR
STARTCHAR brokenbar
ENCODING -1 1
SWIDTH 265 0
DWIDTH 3 0
BBX 1 7 1 -1
BITMAP
80
80
80
00
80
80
80
ENDCHAR
STARTCHAR eth
ENCODING -1 1
SWIDTH 602 0
DWIDTH 6 0
BBX 5 6 1 0
BITMAP
68
10
70
90
90
60
ENDCHAR
STARTCHAR logicalnot
ENCODING -1 1
SWIDTH 633 0
DWIDTH 6 0
BBX 5 2 1 1
BITMAP
F8
08
ENDCHAR
STARTCHAR emdash
ENCODING 208
SWIDTH 1012 0
DWIDTH 11 0
BBX 9 1 1 2
BITMAP
FF80
ENDCHAR
STARTCHAR caron
ENCODING 207
SWIDTH 614 0
DWIDTH 6 0
BBX 3 2 2 5
BITMAP
A0
40
ENDCHAR
STARTCHAR ogonek
ENCODING 206
SWIDTH 614 0
DWIDTH 6 0
BBX 3 1 2 -1
BITMAP
E0
ENDCHAR
STARTCHAR hungarumlaut
ENCODING 205
SWIDTH 614 0
DWIDTH 6 0
BBX 5 2 1 5
BITMAP
48
90
ENDCHAR
STARTCHAR thorn
ENCODING -1 1
SWIDTH 630 0
DWIDTH 6 0
BBX 4 6 1 -1
BITMAP
80
A0
D0
90
E0
80
ENDCHAR
STARTCHAR cedilla
ENCODING 203
SWIDTH 614 0
DWIDTH 6 0
BBX 3 1 1 -1
BITMAP
E0
ENDCHAR
STARTCHAR ring
ENCODING 202
SWIDTH 614 0
DWIDTH 6 0
BBX 3 3 2 4
BITMAP
40
A0
40
ENDCHAR
STARTCHAR threequarters
ENCODING -1 1
SWIDTH 873 0
DWIDTH 9 0
BBX 9 6 0 0
BITMAP
C200
E400
2900
D700
2F80
4100
ENDCHAR
STARTCHAR dieresis
ENCODING 200
SWIDTH 614 0
DWIDTH 6 0
BBX 4 1 1 5
BITMAP
90
ENDCHAR
STARTCHAR dotaccent
ENCODING 199
SWIDTH 614 0
DWIDTH 6 0
BBX 1 2 3 5
BITMAP
80
00
ENDCHAR
STARTCHAR breve
ENCODING 198
SWIDTH 614 0
DWIDTH 6 0
BBX 4 2 1 5
BITMAP
90
60
ENDCHAR
STARTCHAR macron
ENCODING 197
SWIDTH 614 0
DWIDTH 6 0
BBX 3 1 2 5
BITMAP
E0
ENDCHAR
STARTCHAR tilde
ENCODING 196
SWIDTH 614 0
DWIDTH 6 0
BBX 5 2 1 5
BITMAP
50
A0
ENDCHAR
STARTCHAR circumflex
ENCODING 195
SWIDTH 614 0
DWIDTH 6 0
BBX 3 2 2 5
BITMAP
40
A0
ENDCHAR
STARTCHAR acute
ENCODING 194
SWIDTH 614 0
DWIDTH 6 0
BBX 2 2 2 5
BITMAP
40
80
ENDCHAR
STARTCHAR grave
ENCODING 193
SWIDTH 614 0
DWIDTH 6 0
BBX 2 2 2 5
BITMAP
80
40
ENDCHAR
STARTCHAR Aacute
ENCODING -1 1
SWIDTH 690 0
DWIDTH 7 0
BBX 5 7 1 0
BITMAP
10
20
20
50
50
F8
88
ENDCHAR
STARTCHAR questiondown
ENCODING 191
SWIDTH 422 0
DWIDTH 4 0
BBX 4 5 0 -1
BITMAP
20
00
60
80
60
ENDCHAR
STARTCHAR Acircumflex
ENCODING -1 1
SWIDTH 690 0
DWIDTH 7 0
BBX 5 7 1 0
BITMAP
20
50
00
20
50
F8
88
ENDCHAR
STARTCHAR perthousand
ENCODING 189
SWIDTH 1012 0
DWIDTH 11 0
BBX 10 6 0 0
BITMAP
2200
5400
2800
1480
2B40
4480
ENDCHAR
STARTCHAR ellipsis
ENCODING 188
SWIDTH 633 0
DWIDTH 6 0
BBX 4 1 1 0
BITMAP
90
ENDCHAR
STARTCHAR guillemotright
ENCODING 187
SWIDTH 524 0
DWIDTH 6 0
BBX 5 3 1 1
BITMAP
90
48
90
ENDCHAR
STARTCHAR quotedblright
ENCODING 186
SWIDTH 373 0
DWIDTH 4 0
BBX 4 2 0 4
BITMAP
50
A0
ENDCHAR
STARTCHAR quotedblbase
ENCODING 185
SWIDTH 373 0
DWIDTH 4 0
BBX 4 2 0 -1
BITMAP
50
A0
ENDCHAR
STARTCHAR quotesinglbase
ENCODING 184
SWIDTH 229 0
DWIDTH 3 0
BBX 2 2 0 -1
BITMAP
40
80
ENDCHAR
STARTCHAR bullet
ENCODING 183
SWIDTH 633 0
DWIDTH 7 0
BBX 3 3 2 1
BITMAP
E0
E0
E0
ENDCHAR
STARTCHAR paragraph
ENCODING 182
SWIDTH 633 0
DWIDTH 6 0
BBX 5 6 0 -1
BITMAP
78
E8
68
28
28
28
ENDCHAR
STARTCHAR Adieresis
ENCODING -1 1
SWIDTH 690 0
DWIDTH 7 0
BBX 5 7 1 0
BITMAP
50
00
20
50
50
F8
88
ENDCHAR
STARTCHAR periodcentered
ENCODING 180
SWIDTH 633 0
DWIDTH 7 0
BBX 7 2 0 1
BITMAP
10
10
ENDCHAR
STARTCHAR daggerdbl
ENCODING 179
SWIDTH 633 0
DWIDTH 6 0
BBX 5 6 1 -1
BITMAP
20
F8
20
F8
20
20
ENDCHAR
STARTCHAR dagger
ENCODING 178
SWIDTH 633 0
DWIDTH 6 0
BBX 5 6 1 -1
BITMAP
20
F8
20
20
20
20
ENDCHAR
STARTCHAR endash
ENCODING 177
SWIDTH 506 0
DWIDTH 5 0
BBX 4 1 1 2
BITMAP
F0
ENDCHAR
STARTCHAR Agrave
ENCODING -1 1
SWIDTH 690 0
DWIDTH 7 0
BBX 5 7 1 0
BITMAP
40
20
20
50
50
F8
88
ENDCHAR
STARTCHAR fl
ENCODING 175
SWIDTH 648 0
DWIDTH 7 0
BBX 5 6 1 0
BITMAP
38
48
E8
48
48
48
ENDCHAR
STARTCHAR fi
ENCODING 174
SWIDTH 645 0
DWIDTH 7 0
BBX 5 6 1 0
BITMAP
38
40
F8
48
48
48
ENDCHAR
STARTCHAR guilsinglright
ENCODING 173
SWIDTH 331 0
DWIDTH 4 0
BBX 2 3 1 1
BITMAP
80
40
80
ENDCHAR
STARTCHAR guilsinglleft
ENCODING 172
SWIDTH 331 0
DWIDTH 4 0
BBX 2 3 1 1
BITMAP
40
80
40
ENDCHAR
STARTCHAR guillemotleft
ENCODING 171
SWIDTH 524 0
DWIDTH 6 0
BBX 5 3 0 1
BITMAP
48
90
48
ENDCHAR
STARTCHAR quotedblleft
ENCODING 170
SWIDTH 373 0
DWIDTH 4 0
BBX 4 2 0 4
BITMAP
50
A0
ENDCHAR
STARTCHAR quotesingle
ENCODING 169
SWIDTH 229 0
DWIDTH 2 0
BBX 1 2 1 4
BITMAP
80
80
ENDCHAR
STARTCHAR currency
ENCODING 168
SWIDTH 633 0
DWIDTH 6 0
BBX 6 5 0 0
BITMAP
84
78
48
78
84
ENDCHAR
STARTCHAR section
ENCODING 167
SWIDTH 633 0
DWIDTH 6 0
BBX 5 7 1 -1
BITMAP
70
80
60
90
60
10
E0
ENDCHAR
STARTCHAR florin
ENCODING 166
SWIDTH 633 0
DWIDTH 6 0
BBX 4 6 1 -1
BITMAP
30
40
F0
40
80
80
ENDCHAR
STARTCHAR yen
ENCODING 165
SWIDTH 633 0
DWIDTH 6 0
BBX 5 5 1 0
BITMAP
88
50
20
F8
20
ENDCHAR
STARTCHAR fraction
ENCODING 164
SWIDTH 36 0
DWIDTH 4 0
BBX 4 7 0 0
BITMAP
00
00
10
20
20
40
80
ENDCHAR
STARTCHAR sterling
ENCODING 163
SWIDTH 633 0
DWIDTH 6 0
BBX 5 5 1 0
BITMAP
38
40
F0
40
F8
ENDCHAR
STARTCHAR cent
ENCODING 162
SWIDTH 633 0
DWIDTH 6 0
BBX 5 6 1 0
BITMAP
20
70
A0
A0
70
20
ENDCHAR
STARTCHAR exclamdown
ENCODING 161
SWIDTH 205 0
DWIDTH 3 0
BBX 1 6 1 -2
BITMAP
80
00
80
80
80
80
ENDCHAR
STARTCHAR Aring
ENCODING -1 1
SWIDTH 690 0
DWIDTH 7 0
BBX 5 7 1 0
BITMAP
20
50
20
50
50
F8
88
ENDCHAR
STARTCHAR Atilde
ENCODING -1 1
SWIDTH 690 0
DWIDTH 7 0
BBX 5 7 1 0
BITMAP
50
A0
20
50
50
F8
88
ENDCHAR
STARTCHAR Ccedilla
ENCODING -1 1
SWIDTH 692 0
DWIDTH 7 0
BBX 5 6 1 -1
BITMAP
38
40
80
40
38
60
ENDCHAR
STARTCHAR Eacute
ENCODING -1 1
SWIDTH 542 0
DWIDTH 6 0
BBX 4 7 1 0
BITMAP
10
20
F0
80
E0
80
F0
ENDCHAR
STARTCHAR Ecircumflex
ENCODING -1 1
SWIDTH 542 0
DWIDTH 6 0
BBX 4 7 1 0
BITMAP
20
50
F0
80
E0
80
F0
ENDCHAR
STARTCHAR Edieresis
ENCODING -1 1
SWIDTH 542 0
DWIDTH 6 0
BBX 4 7 1 0
BITMAP
90
00
F0
80
E0
80
F0
ENDCHAR
STARTCHAR Egrave
ENCODING -1 1
SWIDTH 542 0
DWIDTH 6 0
BBX 4 7 1 0
BITMAP
40
20
F0
80
E0
80
F0
ENDCHAR
STARTCHAR Iacute
ENCODING -1 1
SWIDTH 289 0
DWIDTH 3 0
BBX 3 7 0 0
BITMAP
40
80
40
40
40
40
40
ENDCHAR
STARTCHAR Icircumflex
ENCODING -1 1
SWIDTH 289 0
DWIDTH 3 0
BBX 3 7 0 0
BITMAP
40
A0
40
40
40
40
40
ENDCHAR
STARTCHAR Idieresis
ENCODING -1 1
SWIDTH 289 0
DWIDTH 3 0
BBX 3 7 0 0
BITMAP
A0
00
40
40
40
40
40
ENDCHAR
STARTCHAR Igrave
ENCODING -1 1
SWIDTH 289 0
DWIDTH 3 0
BBX 3 7 0 0
BITMAP
40
20
40
40
40
40
40
ENDCHAR
STARTCHAR Ntilde
ENCODING -1 1
SWIDTH 741 0
DWIDTH 8 0
BBX 6 7 1 0
BITMAP
28
50
84
C4
B4
8C
84
ENDCHAR
STARTCHAR Oacute
ENCODING -1 1
SWIDTH 777 0
DWIDTH 8 0
BBX 6 7 1 0
BITMAP
08
10
78
84
84
84
78
ENDCHAR
STARTCHAR Ocircumflex
ENCODING -1 1
SWIDTH 777 0
DWIDTH 8 0
BBX 6 7 1 0
BITMAP
30
48
78
84
84
84
78
ENDCHAR
STARTCHAR Odieresis
ENCODING -1 1
SWIDTH 777 0
DWIDTH 8 0
BBX 6 7 1 0
BITMAP
48
00
78
84
84
84
78
ENDCHAR
STARTCHAR Ograve
ENCODING -1 1
SWIDTH 777 0
DWIDTH 8 0
BBX 6 7 1 0
BITMAP
40
20
78
84
84
84
78
ENDCHAR
STARTCHAR Otilde
ENCODING -1 1
SWIDTH 777 0
DWIDTH 8 0
BBX 6 7 1 0
BITMAP
14
28
78
84
84
84
78
ENDCHAR
STARTCHAR Scaron
ENCODING -1 1
SWIDTH 539 0
DWIDTH 6 0
BBX 4 7 1 0
BITMAP
50
20
70
80
E0
10
E0
ENDCHAR
STARTCHAR Uacute
ENCODING -1 1
SWIDTH 693 0
DWIDTH 7 0
BBX 5 7 1 0
BITMAP
10
20
88
88
88
88
70
ENDCHAR
STARTCHAR Ucircumflex
ENCODING -1 1
SWIDTH 693 0
DWIDTH 7 0
BBX 5 7 1 0
BITMAP
20
50
88
88
88
88
70
ENDCHAR
STARTCHAR Udieresis
ENCODING -1 1
SWIDTH 693 0
DWIDTH 7 0
BBX 5 7 1 0
BITMAP
50
00
88
88
88
88
70
ENDCHAR
STARTCHAR Ugrave
ENCODING -1 1
SWIDTH 693 0
DWIDTH 7 0
BBX 5 7 1 0
BITMAP
40
20
88
88
88
88
70
ENDCHAR
STARTCHAR Yacute
ENCODING -1 1
SWIDTH 623 0
DWIDTH 7 0
BBX 5 7 1 0
BITMAP
10
20
88
50
20
20
20
ENDCHAR
STARTCHAR Ydieresis
ENCODING -1 1
SWIDTH 623 0
DWIDTH 7 0
BBX 5 7 1 0
BITMAP
50
00
88
50
20
20
20
ENDCHAR
STARTCHAR Zcaron
ENCODING -1 1
SWIDTH 605 0
DWIDTH 6 0
BBX 4 7 1 0
BITMAP
50
20
F0
10
60
80
F0
ENDCHAR
STARTCHAR aacute
ENCODING -1 1
SWIDTH 552 0
DWIDTH 6 0
BBX 5 7 1 0
BITMAP
10
20
00
60
10
F0
68
ENDCHAR
STARTCHAR acircumflex
ENCODING -1 1
SWIDTH 552 0
DWIDTH 6 0
BBX 5 7 1 0
BITMAP
20
50
00
60
10
F0
68
ENDCHAR
STARTCHAR adieresis
ENCODING -1 1
SWIDTH 552 0
DWIDTH 6 0
BBX 5 6 1 0
BITMAP
50
00
60
10
F0
68
ENDCHAR
STARTCHAR agrave
ENCODING -1 1
SWIDTH 552 0
DWIDTH 6 0
BBX 5 7 1 0
BITMAP
40
20
00
60
10
F0
68
ENDCHAR
STARTCHAR aring
ENCODING -1 1
SWIDTH 552 0
DWIDTH 6 0
BBX 5 7 1 0
BITMAP
20
50
20
60
10
F0
68
ENDCHAR
STARTCHAR atilde
ENCODING -1 1
SWIDTH 552 0
DWIDTH 6 0
BBX 6 7 0 0
BITMAP
28
50
00
30
08
78
34
ENDCHAR
STARTCHAR ccedilla
ENCODING -1 1
SWIDTH 518 0
DWIDTH 6 0
BBX 4 5 1 -1
BITMAP
70
80
80
70
C0
ENDCHAR
STARTCHAR eacute
ENCODING -1 1
SWIDTH 557 0
DWIDTH 6 0
BBX 4 7 1 0
BITMAP
10
20
00
60
F0
80
70
ENDCHAR
STARTCHAR ecircumflex
ENCODING -1 1
SWIDTH 557 0
DWIDTH 6 0
BBX 4 7 1 0
BITMAP
20
50
00
60
F0
80
70
ENDCHAR
STARTCHAR asciitilde
ENCODING 126
SWIDTH 633 0
DWIDTH 7 0
BBX 6 2 1 2
BITMAP
64
98
ENDCHAR
STARTCHAR braceright
ENCODING 125
SWIDTH 325 0
DWIDTH 4 0
BBX 3 7 1 -1
BITMAP
80
40
40
20
40
40
80
ENDCHAR
STARTCHAR bar
ENCODING 124
SWIDTH 265 0
DWIDTH 3 0
BBX 1 7 1 -1
BITMAP
80
80
80
80
80
80
80
ENDCHAR
STARTCHAR braceleft
ENCODING 123
SWIDTH 325 0
DWIDTH 4 0
BBX 3 7 0 -1
BITMAP
20
40
40
80
40
40
20
ENDCHAR
STARTCHAR z
ENCODING 122
SWIDTH 573 0
DWIDTH 6 0
BBX 4 4 1 0
BITMAP
F0
20
40
F0
ENDCHAR
STARTCHAR y
ENCODING 121
SWIDTH 568 0
DWIDTH 6 0
BBX 4 5 1 -1
BITMAP
90
90
60
60
C0
ENDCHAR
STARTCHAR x
ENCODING 120
SWIDTH 613 0
DWIDTH 6 0
BBX 4 4 1 0
BITMAP
90
60
60
90
ENDCHAR
STARTCHAR w
ENCODING 119
SWIDTH 840 0
DWIDTH 9 0
BBX 7 4 1 0
BITMAP
82
92
6C
44
ENDCHAR
STARTCHAR v
ENCODING 118
SWIDTH 572 0
DWIDTH 6 0
BBX 4 4 1 0
BITMAP
90
90
60
60
ENDCHAR
STARTCHAR u
ENCODING 117
SWIDTH 620 0
DWIDTH 6 0
BBX 4 4 1 0
BITMAP
90
90
B0
50
ENDCHAR
STARTCHAR t
ENCODING 116
SWIDTH 374 0
DWIDTH 4 0
BBX 4 5 0 0
BITMAP
40
F0
40
40
30
ENDCHAR
STARTCHAR s
ENCODING 115
SWIDTH 510 0
DWIDTH 5 0
BBX 3 4 1 0
BITMAP
60
C0
20
C0
ENDCHAR
STARTCHAR r
ENCODING 114
SWIDTH 409 0
DWIDTH 5 0
BBX 3 4 1 0
BITMAP
A0
C0
80
80
ENDCHAR
STARTCHAR q
ENCODING 113
SWIDTH 630 0
DWIDTH 6 0
BBX 4 5 1 -1
BITMAP
70
90
B0
50
10
ENDCHAR
STARTCHAR p
ENCODING 112
SWIDTH 630 0
DWIDTH 6 0
BBX 4 5 1 -1
BITMAP
A0
D0
90
E0
80
ENDCHAR
STARTCHAR o
ENCODING 111
SWIDTH 614 0
DWIDTH 6 0
BBX 4 4 1 0
BITMAP
60
90
90
60
ENDCHAR
STARTCHAR n
ENCODING 110
SWIDTH 620 0
DWIDTH 6 0
BBX 4 4 1 0
BITMAP
E0
90
90
90
ENDCHAR
STARTCHAR m
ENCODING 109
SWIDTH 934 0
DWIDTH 9 0
BBX 7 4 1 0
BITMAP
EC
92
92
92
ENDCHAR
STARTCHAR l
ENCODING 108
SWIDTH 289 0
DWIDTH 3 0
BBX 1 6 1 0
BITMAP
80
80
80
80
80
80
ENDCHAR
STARTCHAR k
ENCODING 107
SWIDTH 585 0
DWIDTH 6 0
BBX 5 6 1 0
BITMAP
80
80
90
E0
90
88
ENDCHAR
STARTCHAR j
ENCODING 106
SWIDTH 304 0
DWIDTH 3 0
BBX 2 7 0 -1
BITMAP
40
00
40
40
40
40
80
ENDCHAR
STARTCHAR i
ENCODING 105
SWIDTH 289 0
DWIDTH 3 0
BBX 1 6 1 0
BITMAP
80
00
80
80
80
80
ENDCHAR
STARTCHAR h
ENCODING 104
SWIDTH 620 0
DWIDTH 6 0
BBX 4 6 1 0
BITMAP
80
80
A0
D0
90
90
ENDCHAR
STARTCHAR g
ENCODING 103
SWIDTH 623 0
DWIDTH 6 0
BBX 4 5 1 -1
BITMAP
70
90
F0
10
E0
ENDCHAR
STARTCHAR f
ENCODING 102
SWIDTH 367 0
DWIDTH 4 0
BBX 4 6 0 0
BITMAP
30
40
F0
40
40
40
ENDCHAR
STARTCHAR e
ENCODING 101
SWIDTH 557 0
DWIDTH 6 0
BBX 4 4 1 0
BITMAP
60
F0
80
70
ENDCHAR
STARTCHAR d
ENCODING 100
SWIDTH 630 0
DWIDTH 6 0
BBX 4 6 1 0
BITMAP
10
10
70
90
B0
50
ENDCHAR
STARTCHAR c
ENCODING 99
SWIDTH 518 0
DWIDTH 6 0
BBX 4 4 1 0
BITMAP
70
80
80
70
ENDCHAR
STARTCHAR b
ENCODING 98
SWIDTH 630 0
DWIDTH 6 0
BBX 4 6 1 0
BITMAP
80
80
A0
D0
90
E0
ENDCHAR
STARTCHAR a
ENCODING 97
SWIDTH 552 0
DWIDTH 6 0
BBX 5 4 1 0
BITMAP
60
10
F0
68
ENDCHAR
STARTCHAR quoteleft
ENCODING 96
SWIDTH 229 0
DWIDTH 2 0
BBX 2 2 0 4
BITMAP
40
80
ENDCHAR
STARTCHAR underscore
ENCODING 95
SWIDTH 663 0
DWIDTH 7 0
BBX 5 1 1 -1
BITMAP
F8
ENDCHAR
STARTCHAR asciicircum
ENCODING 94
SWIDTH 633 0
DWIDTH 6 0
BBX 5 4 1 1
BITMAP
20
50
50
88
ENDCHAR
STARTCHAR bracketright
ENCODING 93
SWIDTH 325 0
DWIDTH 4 0
BBX 2 7 1 -1
BITMAP
C0
40
40
40
40
40
C0
ENDCHAR
STARTCHAR backslash
ENCODING 92
SWIDTH 494 0
DWIDTH 5 0
BBX 5 7 0 -1
BITMAP
80
80
40
20
10
08
08
ENDCHAR
STARTCHAR bracketleft
ENCODING 91
SWIDTH 325 0
DWIDTH 4 0
BBX 2 7 1 -1
BITMAP
C0
80
80
80
80
80
C0
ENDCHAR
STARTCHAR Z
ENCODING 90
SWIDTH 605 0
DWIDTH 6 0
BBX 4 5 1 0
BITMAP
F0
10
60
80
F0
ENDCHAR
STARTCHAR Y
ENCODING 89
SWIDTH 623 0
DWIDTH 7 0
BBX 5 5 1 0
BITMAP
88
50
20
20
20
ENDCHAR
STARTCHAR X
ENCODING 88
SWIDTH 626 0
DWIDTH 7 0
BBX 5 5 1 0
BITMAP
88
50
20
50
88
ENDCHAR
STARTCHAR W
ENCODING 87
SWIDTH 855 0
DWIDTH 9 0
BBX 7 5 1 0
BITMAP
82
92
AA
44
44
ENDCHAR
STARTCHAR V
ENCODING 86
SWIDTH 654 0
DWIDTH 7 0
BBX 5 5 1 0
BITMAP
88
88
50
50
20
ENDCHAR
STARTCHAR U
ENCODING 85
SWIDTH 693 0
DWIDTH 7 0
BBX 5 5 1 0
BITMAP
88
88
88
88
70
ENDCHAR
STARTCHAR T
ENCODING 84
SWIDTH 633 0
DWIDTH 7 0
BBX 5 5 1 0
BITMAP
F8
20
20
20
20
ENDCHAR
STARTCHAR S
ENCODING 83
SWIDTH 539 0
DWIDTH 6 0
BBX 4 5 1 0
BITMAP
70
80
60
10
E0
ENDCHAR
STARTCHAR R
ENCODING 82
SWIDTH 633 0
DWIDTH 6 0
BBX 5 5 1 0
BITMAP
E0
90
E0
90
88
ENDCHAR
STARTCHAR Q
ENCODING 81
SWIDTH 777 0
DWIDTH 8 0
BBX 6 6 1 -1
BITMAP
78
84
84
84
78
0C
ENDCHAR
STARTCHAR P
ENCODING 80
SWIDTH 553 0
DWIDTH 6 0
BBX 4 5 1 0
BITMAP
E0
90
E0
80
80
ENDCHAR
STARTCHAR O
ENCODING 79
SWIDTH 777 0
DWIDTH 8 0
BBX 6 5 1 0
BITMAP
78
84
84
84
78
ENDCHAR
STARTCHAR N
ENCODING 78
SWIDTH 741 0
DWIDTH 8 0
BBX 6 5 1 0
BITMAP
84
C4
B4
8C
84
ENDCHAR
STARTCHAR M
ENCODING 77
SWIDTH 861 0
DWIDTH 9 0
BBX 7 5 1 0
BITMAP
82
C6
AA
92
82
ENDCHAR
STARTCHAR L
ENCODING 76
SWIDTH 533 0
DWIDTH 5 0
BBX 4 5 1 0
BITMAP
80
80
80
80
F0
ENDCHAR
STARTCHAR K
ENCODING 75
SWIDTH 653 0
DWIDTH 7 0
BBX 5 5 1 0
BITMAP
98
A0
E0
90
98
ENDCHAR
STARTCHAR J
ENCODING 74
SWIDTH 311 0
DWIDTH 4 0
BBX 3 6 0 -1
BITMAP
20
20
20
20
20
C0
ENDCHAR
STARTCHAR I
ENCODING 73
SWIDTH 289 0
DWIDTH 3 0
BBX 1 5 1 0
BITMAP
80
80
80
80
80
ENDCHAR
STARTCHAR H
ENCODING 72
SWIDTH 735 0
DWIDTH 7 0
BBX 5 5 1 0
BITMAP
88
88
F8
88
88
ENDCHAR
STARTCHAR G
ENCODING 71
SWIDTH 723 0
DWIDTH 7 0
BBX 5 5 1 0
BITMAP
38
40
88
48
38
ENDCHAR
STARTCHAR F
ENCODING 70
SWIDTH 536 0
DWIDTH 5 0
BBX 4 5 1 0
BITMAP
F0
80
E0
80
80
ENDCHAR
STARTCHAR E
ENCODING 69
SWIDTH 542 0
DWIDTH 6 0
BBX 4 5 1 0
BITMAP
F0
80
E0
80
F0
ENDCHAR
STARTCHAR D
ENCODING 68
SWIDTH 749 0
DWIDTH 8 0
BBX 6 5 1 0
BITMAP
F0
88
84
88
F0
ENDCHAR
STARTCHAR C
ENCODING 67
SWIDTH 692 0
DWIDTH 7 0
BBX 5 5 1 0
BITMAP
38
40
80
40
38
ENDCHAR
STARTCHAR B
ENCODING 66
SWIDTH 575 0
DWIDTH 6 0
BBX 4 5 1 0
BITMAP
E0
90
E0
90
E0
ENDCHAR
STARTCHAR A
ENCODING 65
SWIDTH 690 0
DWIDTH 7 0
BBX 5 5 1 0
BITMAP
20
50
50
F8
88
ENDCHAR
STARTCHAR at
ENCODING 64
SWIDTH 858 0
DWIDTH 9 0
BBX 7 6 1 -1
BITMAP
3C
44
9C
9E
40
3C
ENDCHAR
STARTCHAR question
ENCODING 63
SWIDTH 422 0
DWIDTH 5 0
BBX 4 5 1 0
BITMAP
60
10
60
00
40
ENDCHAR
STARTCHAR greater
ENCODING 62
SWIDTH 633 0
DWIDTH 6 0
BBX 5 5 1 0
BITMAP
40
20
10
20
40
ENDCHAR
STARTCHAR equal
ENCODING 61
SWIDTH 633 0
DWIDTH 6 0
BBX 5 3 1 1
BITMAP
F8
00
F8
ENDCHAR
STARTCHAR less
ENCODING 60
SWIDTH 633 0
DWIDTH 6 0
BBX 6 5 1 0
BITMAP
10
20
40
20
10
ENDCHAR
STARTCHAR semicolon
ENCODING 59
SWIDTH 205 0
DWIDTH 2 0
BBX 2 6 0 -2
BITMAP
40
00
00
40
80
00
ENDCHAR
STARTCHAR colon
ENCODING 58
SWIDTH 205 0
DWIDTH 2 0
BBX 1 4 1 0
BITMAP
80
00
00
80
ENDCHAR
STARTCHAR nine
ENCODING 57
SWIDTH 633 0
DWIDTH 6 0
BBX 4 5 1 0
BITMAP
60
90
70
10
E0
ENDCHAR
STARTCHAR eight
ENCODING 56
SWIDTH 633 0
DWIDTH 6 0
BBX 4 5 1 0
BITMAP
60
90
60
90
60
ENDCHAR
STARTCHAR seven
ENCODING 55
SWIDTH 633 0
DWIDTH 6 0
BBX 4 5 1 0
BITMAP
F0
10
20
40
40
ENDCHAR
STARTCHAR six
ENCODING 54
SWIDTH 633 0
DWIDTH 6 0
BBX 4 5 1 0
BITMAP
70
80
E0
90
60
ENDCHAR
STARTCHAR five
ENCODING 53
SWIDTH 633 0
DWIDTH 6 0
BBX 4 5 1 0
BITMAP
F0
80
E0
10
E0
ENDCHAR
STARTCHAR four
ENCODING 52
SWIDTH 633 0
DWIDTH 6 0
BBX 5 5 1 0
BITMAP
30
50
90
F8
10
ENDCHAR
STARTCHAR three
ENCODING 51
SWIDTH 633 0
DWIDTH 6 0
BBX 4 5 1 0
BITMAP
E0
10
60
10
E0
ENDCHAR
STARTCHAR two
ENCODING 50
SWIDTH 633 0
DWIDTH 6 0
BBX 4 5 1 0
BITMAP
E0
10
20
40
F0
ENDCHAR
STARTCHAR one
ENCODING 49
SWIDTH 633 0
DWIDTH 6 0
BBX 3 5 1 0
BITMAP
20
E0
20
20
20
ENDCHAR
STARTCHAR zero
ENCODING 48
SWIDTH 633 0
DWIDTH 6 0
BBX 4 5 1 0
BITMAP
60
90
90
90
60
ENDCHAR
STARTCHAR slash
ENCODING 47
SWIDTH 494 0
DWIDTH 5 0
BBX 5 7 0 -1
BITMAP
08
08
10
20
40
80
80
ENDCHAR
STARTCHAR period
ENCODING 46
SWIDTH 229 0
DWIDTH 2 0
BBX 1 1 1 0
BITMAP
80
ENDCHAR
STARTCHAR hyphen
ENCODING 45
SWIDTH 325 0
DWIDTH 3 0
BBX 2 1 1 2
BITMAP
C0
ENDCHAR
STARTCHAR comma
ENCODING 44
SWIDTH 229 0
DWIDTH 2 0
BBX 2 3 0 -2
BITMAP
40
80
00
ENDCHAR
STARTCHAR plus
ENCODING 43
SWIDTH 633 0
DWIDTH 6 0
BBX 5 3 1 1
BITMAP
20
F8
20
ENDCHAR
STARTCHAR asterisk
ENCODING 42
SWIDTH 482 0
DWIDTH 5 0
BBX 3 3 1 3
BITMAP
A0
40
A0
ENDCHAR
STARTCHAR parenright
ENCODING 41
SWIDTH 325 0
DWIDTH 4 0
BBX 2 7 1 -1
BITMAP
80
80
40
40
40
80
80
ENDCHAR
STARTCHAR parenleft
ENCODING 40
SWIDTH 325 0
DWIDTH 4 0
BBX 2 7 1 -1
BITMAP
40
40
80
80
80
40
40
ENDCHAR
STARTCHAR quoteright
ENCODING 39
SWIDTH 229 0
DWIDTH 2 0
BBX 2 2 0 4
BITMAP
40
80
ENDCHAR
STARTCHAR ampersand
ENCODING 38
SWIDTH 697 0
DWIDTH 7 0
BBX 6 5 1 0
BITMAP
60
90
64
98
64
ENDCHAR
STARTCHAR percent
ENCODING 37
SWIDTH 669 0
DWIDTH 7 0
BBX 7 6 0 0
BITMAP
22
54
28
14
2A
44
ENDCHAR
STARTCHAR dollar
ENCODING 36
SWIDTH 633 0
DWIDTH 6 0
BBX 5 7 1 -1
BITMAP
20
78
A0
70
28
F0
20
ENDCHAR
STARTCHAR numbersign
ENCODING 35
SWIDTH 633 0
DWIDTH 6 0
BBX 5 5 1 0
BITMAP
50
D8
50
D8
50
ENDCHAR
STARTCHAR quotedbl
ENCODING 34
SWIDTH 373 0
DWIDTH 4 0
BBX 3 2 1 4
BITMAP
A0
A0
ENDCHAR
STARTCHAR exclam
ENCODING 33
SWIDTH 205 0
DWIDTH 3 0
BBX 1 5 1 0
BITMAP
80
80
80
00
80
ENDCHAR
STARTCHAR edieresis
ENCODING -1 1
SWIDTH 557 0
DWIDTH 6 0
BBX 4 6 1 0
BITMAP
90
00
60
F0
80
70
ENDCHAR
STARTCHAR egrave
ENCODING -1 1
SWIDTH 557 0
DWIDTH 6 0
BBX 4 7 1 0
BITMAP
40
20
00
60
F0
80
70
ENDCHAR
STARTCHAR iacute
ENCODING -1 1
SWIDTH 289 0
DWIDTH 3 0
BBX 2 7 1 0
BITMAP
40
80
00
80
80
80
80
ENDCHAR
STARTCHAR icircumflex
ENCODING -1 1
SWIDTH 289 0
DWIDTH 3 0
BBX 3 7 0 0
BITMAP
40
A0
00
40
40
40
40
ENDCHAR
STARTCHAR idieresis
ENCODING -1 1
SWIDTH 289 0
DWIDTH 3 0
BBX 3 6 0 0
BITMAP
A0
00
40
40
40
40
ENDCHAR
STARTCHAR igrave
ENCODING -1 1
SWIDTH 289 0
DWIDTH 3 0
BBX 2 7 0 0
BITMAP
80
40
00
40
40
40
40
ENDCHAR
STARTCHAR ntilde
ENCODING -1 1
SWIDTH 620 0
DWIDTH 6 0
BBX 5 7 1 0
BITMAP
50
A0
00
A0
D0
90
90
ENDCHAR
STARTCHAR oacute
ENCODING -1 1
SWIDTH 614 0
DWIDTH 6 0
BBX 4 7 1 0
BITMAP
20
40
00
60
90
90
60
ENDCHAR
STARTCHAR ocircumflex
ENCODING -1 1
SWIDTH 614 0
DWIDTH 6 0
BBX 4 7 1 0
BITMAP
20
50
00
60
90
90
60
ENDCHAR
STARTCHAR odieresis
ENCODING -1 1
SWIDTH 614 0
DWIDTH 6 0
BBX 4 6 1 0
BITMAP
90
00
60
90
90
60
ENDCHAR
STARTCHAR ograve
ENCODING -1 1
SWIDTH 614 0
DWIDTH 6 0
BBX 4 7 1 0
BITMAP
40
20
00
60
90
90
60
ENDCHAR
STARTCHAR otilde
ENCODING -1 1
SWIDTH 614 0
DWIDTH 6 0
BBX 5 7 0 0
BITMAP
28
50
00
30
48
48
30
ENDCHAR
STARTCHAR scaron
ENCODING -1 1
SWIDTH 510 0
DWIDTH 5 0
BBX 3 7 1 0
BITMAP
A0
40
00
60
C0
20
C0
ENDCHAR
STARTCHAR uacute
ENCODING -1 1
SWIDTH 620 0
DWIDTH 6 0
BBX 4 7 1 0
BITMAP
20
40
00
90
90
B0
50
ENDCHAR
STARTCHAR ucircumflex
ENCODING -1 1
SWIDTH 620 0
DWIDTH 6 0
BBX 4 7 1 0
BITMAP
20
50
00
90
90
B0
50
ENDCHAR
STARTCHAR udieresis
ENCODING -1 1
SWIDTH 620 0
DWIDTH 6 0
BBX 4 6 1 0
BITMAP
90
00
90
90
B0
50
ENDCHAR
STARTCHAR ugrave
ENCODING -1 1
SWIDTH 620 0
DWIDTH 6 0
BBX 4 7 1 0
BITMAP
40
20
00
90
90
B0
50
ENDCHAR
STARTCHAR yacute
ENCODING -1 1
SWIDTH 568 0
DWIDTH 6 0
BBX 4 8 1 -1
BITMAP
20
40
00
90
90
60
60
C0
ENDCHAR
STARTCHAR ydieresis
ENCODING -1 1
SWIDTH 568 0
DWIDTH 6 0
BBX 4 7 1 -1
BITMAP
90
00
90
90
60
60
C0
ENDCHAR
STARTCHAR zcaron
ENCODING -1 1
SWIDTH 573 0
DWIDTH 6 0
BBX 4 7 1 0
BITMAP
50
20
00
F0
20
40
F0
ENDCHAR
STARTCHAR space
ENCODING 32
SWIDTH 316 0
DWIDTH 3 0
BBX 0 0 0 0
BITMAP
ENDCHAR
ENDFONT

