STARTFONT 2.1
COMMENT
COMMENT @(#)r3Xolfonts:Xol/a12sldrv.bdf	1.2
COMMENT
COMMENT        Copyright (c) 1984 AT&T
COMMENT          All Rights Reserved
COMMENT
COMMENT THIS IS UNPUBLISHED PROPRIETARY SOURCE CODE OF AT&T
COMMENT The copyright notice above does not evidence any
COMMENT actual or intended publication of such source code.
COMMENT
COMMENT This font is used by the Xt+ toolkit to build the
COMMENT oblong OPEN LOOK buttons. The shine mark and more
COMMENT arrow are also in here.
COMMENT
COMMENT OPEN LOOK is a trademark of AT&T
COMMENT
FONT a12sldrv
SIZE 12 76 76
FONTBOUNDINGBOX 14 8 0 -8
STARTPROPERTIES 11
Copyright "Copyright (c) 1988 AT&T, Inc."
FONT_ASCENT 0
FONT_DESCENT 8
MIN_SPACE	11
NORM_SPACE	5
MAX_SPACE	1
END_SPACE	5
SUPERSCRIPT_X	2
SUPERSCRIPT_Y	8
SUBSCRIPT_X	14
SUBSCRIPT_Y	2
ENDPROPERTIES
COMMENT MIN_SPACE  == ANCHWIDTH
COMMENT NORM_SPACE == ANCHLEN
COMMENT MAX_SPACE  == LINEWIDTH
COMMENT END_SPACE  == CABLEWIDTH
COMMENT SUPERSCRIPT_X == ANCH_GAP_ELEV
COMMENT SUPERSCRIPT_Y == ELEV_PART_LEN
COMMENT SUBSCRIPT_X == ELEV_WIDTH
COMMENT SUBSCRIPT_Y == ROUNDLEN
CHARS 13
STARTCHAR drag_box
ENCODING 3
SWIDTH 945 0
DWIDTH 14 0
BBX 14 8 0 -8
BITMAP
fffc
800c
800c
800c
800c
800c
fffc
fffc
ENDCHAR
STARTCHAR idrag_box
ENCODING 6
SWIDTH 945 0
DWIDTH 14 0
BBX 14 8 0 -8
BITMAP
fffc
800c
bfec
bfec
bfec
800c
fffc
fffc
ENDCHAR
STARTCHAR icable_tip1
ENCODING 8
SWIDTH 945 0
DWIDTH 14 0
BBX 14 2 0 -2
BITMAP
0700
0880
ENDCHAR
STARTCHAR icable_tip2
ENCODING 9
SWIDTH 945 0
DWIDTH 14 0
BBX 14 2 0 -2
BITMAP
0000
0700
ENDCHAR
STARTCHAR dcable_tip
ENCODING 10
SWIDTH 945 0
DWIDTH 14 0
BBX 14 2 0 -2
BITMAP
0f80
0700
ENDCHAR
STARTCHAR anchwidth
ENCODING 11
SWIDTH 945 0
DWIDTH 11  0
BBX 11  1 0 -1
BITMAP
000000
ENDCHAR
STARTCHAR anchlen
ENCODING 12
SWIDTH 945 0
DWIDTH 5  0
BBX 5  1 0 -1
BITMAP
000000
ENDCHAR
STARTCHAR linewidth
ENCODING 13
SWIDTH 945 0
DWIDTH 1  0
BBX 1  1 0 -1
BITMAP
000000
ENDCHAR
STARTCHAR cablewidth
ENCODING 14
SWIDTH 945 0
DWIDTH 5  0
BBX 5  1 0 -1
BITMAP
000000
ENDCHAR
STARTCHAR anch_gap_len
ENCODING 15
SWIDTH 945 0
DWIDTH 2  0
BBX 2  1 0 -1
BITMAP
000000
ENDCHAR
STARTCHAR elev_part_len
ENCODING 16
SWIDTH 945 0
DWIDTH 8  0
BBX 8  1 0 -1
BITMAP
000000
ENDCHAR
STARTCHAR elev_width
ENCODING 17
SWIDTH 945 0
DWIDTH 14  0
BBX 14  1 0 -1
BITMAP
000000
ENDCHAR
STARTCHAR roundlen
ENCODING 18
SWIDTH 945 0
DWIDTH 2  0
BBX 2  1 0 -1
BITMAP
000000
ENDCHAR
ENDFONT
