STARTFONT 2.1
COMMENT GRID 0012 0012 0200 0200
FONT b12lucid
SIZE 12 75 75
FONTBOUNDINGBOX 12 10 0 -1
COMMENT GUIDELINES -2 0 7 9 11 DONE
COMMENT WIDTHERR 41 89
STARTPROPERTIES 3
FONT_ASCENT 8
FONT_DESCENT 1
DEFAULT_CHAR 32
ENDPROPERTIES
CHARS 244
STARTCHAR Upsilon
ENCODING -1 1
SWIDTH 638 0
DWIDTH 8 0
BBX 7 7 1 0
BITMAP
82
44
28
28
10
10
10
ENDCHAR
STARTCHAR Gamma
ENCODING -1 1
SWIDTH 512 0
DWIDTH 7 0
BBX 5 7 2 0
BITMAP
F8
80
80
80
80
80
80
ENDCHAR
STARTCHAR Delta
ENCODING -1 1
SWIDTH 663 0
DWIDTH 8 0
BBX 6 7 1 0
BITMAP
30
30
48
48
84
84
FC
ENDCHAR
STARTCHAR Theta
ENCODING -1 1
SWIDTH 777 0
DWIDTH 10 0
BBX 8 7 1 0
BITMAP
3C
42
81
BD
81
42
3C
ENDCHAR
STARTCHAR Lambda
ENCODING -1 1
SWIDTH 651 0
DWIDTH 8 0
BBX 6 7 1 0
BITMAP
30
30
48
48
84
84
84
ENDCHAR
STARTCHAR Xi
ENCODING -1 1
SWIDTH 608 0
DWIDTH 8 0
BBX 6 7 1 0
BITMAP
FC
00
00
78
00
00
FC
ENDCHAR
STARTCHAR Pi
ENCODING -1 1
SWIDTH 759 0
DWIDTH 9 0
BBX 7 7 1 0
BITMAP
FE
44
44
44
44
44
44
ENDCHAR
STARTCHAR Sigma
ENCODING -1 1
SWIDTH 642 0
DWIDTH 8 0
BBX 6 7 1 0
BITMAP
FC
40
20
10
20
40
FC
ENDCHAR
STARTCHAR Phi
ENCODING -1 1
SWIDTH 657 0
DWIDTH 8 0
BBX 7 7 1 0
BITMAP
10
7C
92
92
7C
10
10
ENDCHAR
STARTCHAR Psi
ENCODING -1 1
SWIDTH 729 0
DWIDTH 9 0
BBX 7 7 1 0
BITMAP
92
54
54
38
10
10
10
ENDCHAR
STARTCHAR Omega
ENCODING -1 1
SWIDTH 783 0
DWIDTH 10 0
BBX 8 7 1 0
BITMAP
3C
42
81
81
42
24
E7
ENDCHAR
STARTCHAR oe
ENCODING 250
SWIDTH 930 0
DWIDTH 11 0
BBX 9 5 1 0
BITMAP
7700
8880
8F80
8800
7780
ENDCHAR
STARTCHAR oslash
ENCODING 249
SWIDTH 614 0
DWIDTH 7 0
BBX 7 7 0 -1
BITMAP
02
3C
4C
54
64
78
80
ENDCHAR
STARTCHAR germandbls
ENCODING 251
SWIDTH 598 0
DWIDTH 8 0
BBX 6 7 2 0
BITMAP
70
88
90
98
84
84
B8
ENDCHAR
STARTCHAR ae
ENCODING 241
SWIDTH 853 0
DWIDTH 11 0
BBX 9 5 1 0
BITMAP
7700
0880
7F80
8800
7780
ENDCHAR
STARTCHAR ff
ENCODING -1 1
SWIDTH 705 0
DWIDTH 9 0
BBX 8 7 1 0
BITMAP
33
44
FF
44
44
44
44
ENDCHAR
STARTCHAR ffi
ENCODING -1 1
SWIDTH 982 0
DWIDTH 12 0
BBX 10 7 1 0
BITMAP
3340
4400
FFC0
4440
4440
4440
4440
ENDCHAR
STARTCHAR ffl
ENCODING -1 1
SWIDTH 982 0
DWIDTH 12 0
BBX 10 7 1 0
BITMAP
33C0
4440
FF40
4440
4440
4440
4440
ENDCHAR
STARTCHAR dotlessi
ENCODING 245
SWIDTH 289 0
DWIDTH 4 0
BBX 1 5 2 0
BITMAP
80
80
80
80
80
ENDCHAR
STARTCHAR lslash
ENCODING 248
SWIDTH 289 0
DWIDTH 5 0
BBX 5 7 0 0
BITMAP
20
20
38
E0
20
20
20
ENDCHAR
STARTCHAR dotlessj
ENCODING -1 1
SWIDTH 304 0
DWIDTH 4 0
BBX 3 6 0 -1
BITMAP
20
20
20
20
20
C0
ENDCHAR
STARTCHAR OE
ENCODING 234
SWIDTH 1000 0
DWIDTH 12 0
BBX 10 7 1 0
BITMAP
3FC0
4400
8400
8780
8400
4400
3FC0
ENDCHAR
STARTCHAR Oslash
ENCODING 233
SWIDTH 777 0
DWIDTH 10 0
BBX 8 8 1 -1
BITMAP
3D
42
85
99
A1
42
BC
00
ENDCHAR
STARTCHAR Lslash
ENCODING 232
SWIDTH 534 0
DWIDTH 6 0
BBX 6 7 0 0
BITMAP
20
20
38
E0
20
20
3C
ENDCHAR
STARTCHAR onesuperior
ENCODING -1 1
SWIDTH 422 0
DWIDTH 5 0
BBX 2 4 1 3
BITMAP
40
C0
40
40
ENDCHAR
STARTCHAR twosuperior
ENCODING -1 1
SWIDTH 422 0
DWIDTH 5 0
BBX 4 4 1 3
BITMAP
E0
70
80
F0
ENDCHAR
STARTCHAR threesuperior
ENCODING -1 1
SWIDTH 422 0
DWIDTH 5 0
BBX 4 4 1 3
BITMAP
E0
70
10
E0
ENDCHAR
STARTCHAR onehalf
ENCODING -1 1
SWIDTH 801 0
DWIDTH 10 0
BBX 10 7 0 0
BITMAP
C400
4400
4800
4980
12C0
2100
23C0
ENDCHAR
STARTCHAR onequarter
ENCODING -1 1
SWIDTH 801 0
DWIDTH 10 0
BBX 10 7 0 0
BITMAP
C400
4400
4800
5180
1280
27C0
2080
ENDCHAR
STARTCHAR ordfeminine
ENCODING 227
SWIDTH 422 0
DWIDTH 6 0
BBX 5 4 1 3
BITMAP
60
10
F0
68
ENDCHAR
STARTCHAR AE
ENCODING 225
SWIDTH 907 0
DWIDTH 11 0
BBX 9 7 1 0
BITMAP
3F80
2800
4800
4F00
F800
8800
8F80
ENDCHAR
STARTCHAR ordmasculine
ENCODING 235
SWIDTH 422 0
DWIDTH 5 0
BBX 4 4 1 3
BITMAP
60
90
90
60
ENDCHAR
STARTCHAR degree
ENCODING -1 1
SWIDTH 277 0
DWIDTH 4 0
BBX 4 3 0 4
BITMAP
60
90
60
ENDCHAR
STARTCHAR copyright
ENCODING -1 1
SWIDTH 855 0
DWIDTH 11 0
BBX 9 7 1 0
BITMAP
3E00
4100
9C80
A080
9C80
4100
3E00
ENDCHAR
STARTCHAR mu
ENCODING -1 1
SWIDTH 627 0
DWIDTH 8 0
BBX 5 6 2 -1
BITMAP
88
88
88
98
E8
80
ENDCHAR
STARTCHAR registered
ENCODING -1 1
SWIDTH 633 0
DWIDTH 8 0
BBX 7 6 1 1
BITMAP
38
54
AA
B2
6C
38
ENDCHAR
STARTCHAR trademark
ENCODING -1 1
SWIDTH 807 0
DWIDTH 10 0
BBX 8 3 1 4
BITMAP
FB
55
51
ENDCHAR
STARTCHAR minus
ENCODING -1 1
SWIDTH 633 0
DWIDTH 8 0
BBX 7 1 1 3
BITMAP
FC
ENDCHAR
STARTCHAR plusminus
ENCODING -1 1
SWIDTH 633 0
DWIDTH 8 0
BBX 7 6 1 0
BITMAP
10
10
FE
10
00
FE
ENDCHAR
STARTCHAR multiply
ENCODING -1 1
SWIDTH 633 0
DWIDTH 8 0
BBX 6 5 1 1
BITMAP
88
50
20
50
88
ENDCHAR
STARTCHAR divide
ENCODING -1 1
SWIDTH 633 0
DWIDTH 8 0
BBX 7 5 1 1
BITMAP
10
00
FE
00
10
ENDCHAR
STARTCHAR TeXtext32
ENCODING -1 1
SWIDTH 289 0
DWIDTH 4 0
BBX 5 1 0 4
BITMAP
F0
ENDCHAR
STARTCHAR Eth
ENCODING -1 1
SWIDTH 749 0
DWIDTH 9 0
BBX 8 7 0 0
BITMAP
7C
42
41
F9
41
42
7C
ENDCHAR
STARTCHAR Thorn
ENCODING -1 1
SWIDTH 553 0
DWIDTH 7 0
BBX 5 7 2 0
BITMAP
80
F0
88
88
F0
80
80
ENDCHAR
STARTCHAR brokenbar
ENCODING -1 1
SWIDTH 265 0
DWIDTH 3 0
BBX 1 8 1 -1
BITMAP
80
80
80
00
00
80
80
80
ENDCHAR
STARTCHAR eth
ENCODING -1 1
SWIDTH 602 0
DWIDTH 7 0
BBX 6 8 1 0
BITMAP
20
78
10
78
88
88
88
70
ENDCHAR
STARTCHAR logicalnot
ENCODING -1 1
SWIDTH 633 0
DWIDTH 8 0
BBX 6 3 1 1
BITMAP
FC
04
04
ENDCHAR
STARTCHAR emdash
ENCODING 208
SWIDTH 1012 0
DWIDTH 13 0
BBX 11 1 1 3
BITMAP
FFE0
ENDCHAR
STARTCHAR caron
ENCODING 207
SWIDTH 614 0
DWIDTH 7 0
BBX 4 2 2 6
BITMAP
A0
40
ENDCHAR
STARTCHAR ogonek
ENCODING 206
SWIDTH 614 0
DWIDTH 7 0
BBX 3 1 3 -1
BITMAP
E0
ENDCHAR
STARTCHAR hungarumlaut
ENCODING 205
SWIDTH 614 0
DWIDTH 7 0
BBX 5 2 2 6
BITMAP
48
90
ENDCHAR
STARTCHAR thorn
ENCODING -1 1
SWIDTH 630 0
DWIDTH 8 0
BBX 5 8 2 -1
BITMAP
80
80
B0
C8
88
88
F0
80
ENDCHAR
STARTCHAR cedilla
ENCODING 203
SWIDTH 614 0
DWIDTH 7 0
BBX 3 1 2 -1
BITMAP
E0
ENDCHAR
STARTCHAR ring
ENCODING 202
SWIDTH 614 0
DWIDTH 7 0
BBX 4 3 2 5
BITMAP
40
A0
40
ENDCHAR
STARTCHAR threequarters
ENCODING -1 1
SWIDTH 873 0
DWIDTH 11 0
BBX 10 7 1 0
BITMAP
E100
7200
1400
E980
1280
27C0
4080
ENDCHAR
STARTCHAR dieresis
ENCODING 200
SWIDTH 614 0
DWIDTH 7 0
BBX 4 1 2 6
BITMAP
90
ENDCHAR
STARTCHAR dotaccent
ENCODING 199
SWIDTH 614 0
DWIDTH 7 0
BBX 2 1 3 6
BITMAP
C0
ENDCHAR
STARTCHAR breve
ENCODING 198
SWIDTH 614 0
DWIDTH 7 0
BBX 5 2 1 6
BITMAP
88
70
ENDCHAR
STARTCHAR macron
ENCODING 197
SWIDTH 614 0
DWIDTH 7 0
BBX 4 1 2 6
BITMAP
F0
ENDCHAR
STARTCHAR tilde
ENCODING 196
SWIDTH 614 0
DWIDTH 7 0
BBX 5 2 2 6
BITMAP
50
A0
ENDCHAR
STARTCHAR circumflex
ENCODING 195
SWIDTH 614 0
DWIDTH 7 0
BBX 4 2 2 6
BITMAP
40
A0
ENDCHAR
STARTCHAR acute
ENCODING 194
SWIDTH 614 0
DWIDTH 7 0
BBX 3 2 3 6
BITMAP
40
80
ENDCHAR
STARTCHAR grave
ENCODING 193
SWIDTH 614 0
DWIDTH 7 0
BBX 3 2 2 6
BITMAP
80
40
ENDCHAR
STARTCHAR Aacute
ENCODING -1 1
SWIDTH 690 0
DWIDTH 8 0
BBX 6 9 1 0
BITMAP
08
10
00
30
48
48
FC
84
84
ENDCHAR
STARTCHAR questiondown
ENCODING 191
SWIDTH 422 0
DWIDTH 5 0
BBX 5 7 0 -1
BITMAP
10
00
10
70
80
80
70
ENDCHAR
STARTCHAR Acircumflex
ENCODING -1 1
SWIDTH 690 0
DWIDTH 8 0
BBX 6 9 1 0
BITMAP
20
50
00
30
48
48
FC
84
84
ENDCHAR
STARTCHAR perthousand
ENCODING 189
SWIDTH 1012 0
DWIDTH 13 0
BBX 11 7 1 0
BITMAP
6000
9200
6C00
1000
6CC0
9320
0CC0
ENDCHAR
STARTCHAR ellipsis
ENCODING 188
SWIDTH 633 0
DWIDTH 8 0
BBX 5 1 2 0
BITMAP
88
ENDCHAR
STARTCHAR guillemotright
ENCODING 187
SWIDTH 524 0
DWIDTH 7 0
BBX 6 3 0 1
BITMAP
48
24
48
ENDCHAR
STARTCHAR quotedblright
ENCODING 186
SWIDTH 373 0
DWIDTH 4 0
BBX 4 2 0 5
BITMAP
50
A0
ENDCHAR
STARTCHAR quotedblbase
ENCODING 185
SWIDTH 373 0
DWIDTH 4 0
BBX 4 2 0 -1
BITMAP
50
A0
ENDCHAR
STARTCHAR quotesinglbase
ENCODING 184
SWIDTH 229 0
DWIDTH 3 0
BBX 2 2 0 -1
BITMAP
40
80
ENDCHAR
STARTCHAR bullet
ENCODING 183
SWIDTH 633 0
DWIDTH 8 0
BBX 3 2 3 2
BITMAP
E0
E0
ENDCHAR
STARTCHAR paragraph
ENCODING 182
SWIDTH 633 0
DWIDTH 8 0
BBX 5 8 1 -1
BITMAP
78
E8
E8
68
28
28
28
28
ENDCHAR
STARTCHAR Adieresis
ENCODING -1 1
SWIDTH 690 0
DWIDTH 8 0
BBX 6 8 1 0
BITMAP
48
00
30
48
48
FC
84
84
ENDCHAR
STARTCHAR periodcentered
ENCODING 180
SWIDTH 633 0
DWIDTH 8 0
BBX 2 2 3 2
BITMAP
C0
C0
ENDCHAR
STARTCHAR daggerdbl
ENCODING 179
SWIDTH 633 0
DWIDTH 8 0
BBX 5 8 2 -1
BITMAP
20
20
F8
20
20
F8
20
20
ENDCHAR
STARTCHAR dagger
ENCODING 178
SWIDTH 633 0
DWIDTH 8 0
BBX 5 8 2 -1
BITMAP
20
20
F8
20
20
20
20
20
ENDCHAR
STARTCHAR endash
ENCODING 177
SWIDTH 506 0
DWIDTH 6 0
BBX 4 1 1 3
BITMAP
F0
ENDCHAR
STARTCHAR Agrave
ENCODING -1 1
SWIDTH 690 0
DWIDTH 8 0
BBX 6 9 1 0
BITMAP
40
20
00
30
48
48
FC
84
84
ENDCHAR
STARTCHAR fl
ENCODING 175
SWIDTH 648 0
DWIDTH 8 0
BBX 6 7 1 0
BITMAP
3C
44
F4
44
44
44
44
ENDCHAR
STARTCHAR fi
ENCODING 174
SWIDTH 645 0
DWIDTH 8 0
BBX 6 7 1 0
BITMAP
34
40
FC
44
44
44
44
ENDCHAR
STARTCHAR guilsinglright
ENCODING 173
SWIDTH 331 0
DWIDTH 4 0
BBX 3 3 1 1
BITMAP
80
40
80
ENDCHAR
STARTCHAR guilsinglleft
ENCODING 172
SWIDTH 331 0
DWIDTH 4 0
BBX 3 3 1 1
BITMAP
40
80
40
ENDCHAR
STARTCHAR guillemotleft
ENCODING 171
SWIDTH 524 0
DWIDTH 7 0
BBX 6 3 1 1
BITMAP
48
90
48
ENDCHAR
STARTCHAR quotedblleft
ENCODING 170
SWIDTH 373 0
DWIDTH 4 0
BBX 4 2 0 5
BITMAP
50
A0
ENDCHAR
STARTCHAR quotesingle
ENCODING 169
SWIDTH 229 0
DWIDTH 3 0
BBX 1 2 1 5
BITMAP
80
80
ENDCHAR
STARTCHAR currency
ENCODING 168
SWIDTH 633 0
DWIDTH 8 0
BBX 8 7 0 0
BITMAP
00
42
3C
24
3C
42
00
ENDCHAR
STARTCHAR section
ENCODING 167
SWIDTH 633 0
DWIDTH 8 0
BBX 6 8 1 -1
BITMAP
38
40
70
88
44
38
08
70
ENDCHAR
STARTCHAR florin
ENCODING 166
SWIDTH 633 0
DWIDTH 8 0
BBX 6 8 2 -1
BITMAP
18
24
20
F8
40
40
80
80
ENDCHAR
STARTCHAR yen
ENCODING 165
SWIDTH 633 0
DWIDTH 8 0
BBX 5 7 2 0
BITMAP
88
88
50
20
F8
20
20
ENDCHAR
STARTCHAR fraction
ENCODING 164
SWIDTH 36 0
DWIDTH 5 0
BBX 5 7 0 0
BITMAP
08
08
10
20
40
80
80
ENDCHAR
STARTCHAR sterling
ENCODING 163
SWIDTH 633 0
DWIDTH 8 0
BBX 6 7 1 0
BITMAP
38
44
40
F0
40
40
FC
ENDCHAR
STARTCHAR cent
ENCODING 162
SWIDTH 633 0
DWIDTH 8 0
BBX 6 7 1 0
BITMAP
10
7C
90
90
90
7C
10
ENDCHAR
STARTCHAR exclamdown
ENCODING 161
SWIDTH 205 0
DWIDTH 3 0
BBX 1 6 1 -1
BITMAP
80
00
80
80
80
80
ENDCHAR
STARTCHAR Aring
ENCODING -1 1
SWIDTH 690 0
DWIDTH 8 0
BBX 6 9 1 0
BITMAP
10
28
10
30
48
48
FC
84
84
ENDCHAR
STARTCHAR Atilde
ENCODING -1 1
SWIDTH 690 0
DWIDTH 8 0
BBX 6 9 1 0
BITMAP
28
50
00
30
48
48
FC
84
84
ENDCHAR
STARTCHAR Ccedilla
ENCODING -1 1
SWIDTH 692 0
DWIDTH 9 0
BBX 7 8 1 -1
BITMAP
3C
42
80
80
80
42
3C
60
ENDCHAR
STARTCHAR Eacute
ENCODING -1 1
SWIDTH 542 0
DWIDTH 7 0
BBX 5 9 1 0
BITMAP
10
20
00
F8
80
F0
80
80
F8
ENDCHAR
STARTCHAR Ecircumflex
ENCODING -1 1
SWIDTH 542 0
DWIDTH 7 0
BBX 5 9 1 0
BITMAP
20
50
00
F8
80
F0
80
80
F8
ENDCHAR
STARTCHAR Edieresis
ENCODING -1 1
SWIDTH 542 0
DWIDTH 7 0
BBX 5 8 1 0
BITMAP
48
00
F8
80
F0
80
80
F8
ENDCHAR
STARTCHAR Egrave
ENCODING -1 1
SWIDTH 542 0
DWIDTH 7 0
BBX 5 9 1 0
BITMAP
40
20
00
F8
80
F0
80
80
F8
ENDCHAR
STARTCHAR Iacute
ENCODING -1 1
SWIDTH 289 0
DWIDTH 4 0
BBX 3 9 1 0
BITMAP
20
40
00
40
40
40
40
40
40
ENDCHAR
STARTCHAR Icircumflex
ENCODING -1 1
SWIDTH 289 0
DWIDTH 4 0
BBX 3 9 1 0
BITMAP
40
A0
00
40
40
40
40
40
40
ENDCHAR
STARTCHAR Idieresis
ENCODING -1 1
SWIDTH 289 0
DWIDTH 4 0
BBX 4 9 0 0
BITMAP
00
50
00
20
20
20
20
20
20
ENDCHAR
STARTCHAR Igrave
ENCODING -1 1
SWIDTH 289 0
DWIDTH 4 0
BBX 4 9 0 0
BITMAP
40
20
00
20
20
20
20
20
20
ENDCHAR
STARTCHAR Ntilde
ENCODING -1 1
SWIDTH 741 0
DWIDTH 9 0
BBX 6 9 2 0
BITMAP
28
50
00
84
C4
A4
94
8C
84
ENDCHAR
STARTCHAR Oacute
ENCODING -1 1
SWIDTH 777 0
DWIDTH 10 0
BBX 8 9 1 0
BITMAP
04
08
00
3C
42
81
81
42
3C
ENDCHAR
STARTCHAR Ocircumflex
ENCODING -1 1
SWIDTH 777 0
DWIDTH 10 0
BBX 8 9 1 0
BITMAP
08
14
00
3C
42
81
81
42
3C
ENDCHAR
STARTCHAR Odieresis
ENCODING -1 1
SWIDTH 777 0
DWIDTH 10 0
BBX 8 8 1 0
BITMAP
24
00
3C
42
81
81
42
3C
ENDCHAR
STARTCHAR Ograve
ENCODING -1 1
SWIDTH 777 0
DWIDTH 10 0
BBX 8 9 1 0
BITMAP
10
08
00
3C
42
81
81
42
3C
ENDCHAR
STARTCHAR Otilde
ENCODING -1 1
SWIDTH 777 0
DWIDTH 10 0
BBX 8 9 1 0
BITMAP
14
28
00
3C
42
81
81
42
3C
ENDCHAR
STARTCHAR Scaron
ENCODING -1 1
SWIDTH 539 0
DWIDTH 7 0
BBX 5 9 1 0
BITMAP
50
20
00
78
80
60
30
08
F0
ENDCHAR
STARTCHAR Uacute
ENCODING -1 1
SWIDTH 693 0
DWIDTH 9 0
BBX 6 9 2 0
BITMAP
10
20
00
84
84
84
84
84
78
ENDCHAR
STARTCHAR Ucircumflex
ENCODING -1 1
SWIDTH 693 0
DWIDTH 9 0
BBX 6 9 2 0
BITMAP
10
28
00
84
84
84
84
84
78
ENDCHAR
STARTCHAR Udieresis
ENCODING -1 1
SWIDTH 693 0
DWIDTH 9 0
BBX 6 8 2 0
BITMAP
48
00
84
84
84
84
84
78
ENDCHAR
STARTCHAR Ugrave
ENCODING -1 1
SWIDTH 693 0
DWIDTH 9 0
BBX 6 9 2 0
BITMAP
40
20
00
84
84
84
84
84
78
ENDCHAR
STARTCHAR Yacute
ENCODING -1 1
SWIDTH 623 0
DWIDTH 8 0
BBX 7 8 1 0
BITMAP
08
10
82
44
28
10
10
10
ENDCHAR
STARTCHAR Ydieresis
ENCODING -1 1
SWIDTH 623 0
DWIDTH 8 0
BBX 7 8 1 0
BITMAP
28
00
82
44
28
10
10
10
ENDCHAR
STARTCHAR Zcaron
ENCODING -1 1
SWIDTH 605 0
DWIDTH 8 0
BBX 6 9 1 0
BITMAP
50
20
00
FC
08
10
20
40
FC
ENDCHAR
STARTCHAR aacute
ENCODING -1 1
SWIDTH 552 0
DWIDTH 7 0
BBX 6 8 1 0
BITMAP
10
20
00
70
08
78
88
74
ENDCHAR
STARTCHAR acircumflex
ENCODING -1 1
SWIDTH 552 0
DWIDTH 7 0
BBX 6 8 1 0
BITMAP
20
50
00
70
08
78
88
74
ENDCHAR
STARTCHAR adieresis
ENCODING -1 1
SWIDTH 552 0
DWIDTH 7 0
BBX 6 7 1 0
BITMAP
50
00
70
08
78
88
74
ENDCHAR
STARTCHAR agrave
ENCODING -1 1
SWIDTH 552 0
DWIDTH 7 0
BBX 6 8 1 0
BITMAP
40
20
00
70
08
78
88
74
ENDCHAR
STARTCHAR aring
ENCODING -1 1
SWIDTH 552 0
DWIDTH 7 0
BBX 6 8 1 0
BITMAP
20
50
20
70
08
78
88
74
ENDCHAR
STARTCHAR atilde
ENCODING -1 1
SWIDTH 552 0
DWIDTH 7 0
BBX 6 8 1 0
BITMAP
28
50
00
70
08
78
88
74
ENDCHAR
STARTCHAR ccedilla
ENCODING -1 1
SWIDTH 518 0
DWIDTH 6 0
BBX 5 6 1 -1
BITMAP
78
80
80
80
78
E0
ENDCHAR
STARTCHAR eacute
ENCODING -1 1
SWIDTH 557 0
DWIDTH 7 0
BBX 5 9 1 0
BITMAP
00
10
20
00
70
88
F8
80
78
ENDCHAR
STARTCHAR ecircumflex
ENCODING -1 1
SWIDTH 557 0
DWIDTH 7 0
BBX 5 8 1 0
BITMAP
28
50
00
70
88
F8
80
78
ENDCHAR
STARTCHAR asciitilde
ENCODING 126
SWIDTH 633 0
DWIDTH 8 0
BBX 7 2 1 2
BITMAP
72
9C
ENDCHAR
STARTCHAR braceright
ENCODING 125
SWIDTH 325 0
DWIDTH 4 0
BBX 4 8 0 -1
BITMAP
C0
20
40
30
40
20
20
C0
ENDCHAR
STARTCHAR bar
ENCODING 124
SWIDTH 265 0
DWIDTH 3 0
BBX 1 8 1 -1
BITMAP
80
80
80
80
80
80
80
80
ENDCHAR
STARTCHAR braceleft
ENCODING 123
SWIDTH 325 0
DWIDTH 4 0
BBX 4 8 0 -1
BITMAP
30
40
20
C0
20
40
40
30
ENDCHAR
STARTCHAR z
ENCODING 122
SWIDTH 573 0
DWIDTH 7 0
BBX 5 5 1 0
BITMAP
F8
10
20
40
F8
ENDCHAR
STARTCHAR y
ENCODING 121
SWIDTH 568 0
DWIDTH 7 0
BBX 5 6 1 -1
BITMAP
88
88
50
20
20
C0
ENDCHAR
STARTCHAR x
ENCODING 120
SWIDTH 613 0
DWIDTH 7 0
BBX 5 5 1 0
BITMAP
88
50
20
50
88
ENDCHAR
STARTCHAR w
ENCODING 119
SWIDTH 840 0
DWIDTH 11 0
BBX 9 5 1 0
BITMAP
8080
8880
5500
5500
2200
ENDCHAR
STARTCHAR v
ENCODING 118
SWIDTH 572 0
DWIDTH 7 0
BBX 5 5 1 0
BITMAP
88
88
50
50
20
ENDCHAR
STARTCHAR u
ENCODING 117
SWIDTH 620 0
DWIDTH 8 0
BBX 5 5 2 0
BITMAP
88
88
88
98
68
ENDCHAR
STARTCHAR t
ENCODING 116
SWIDTH 374 0
DWIDTH 5 0
BBX 4 7 1 0
BITMAP
00
40
F0
40
40
40
30
ENDCHAR
STARTCHAR s
ENCODING 115
SWIDTH 510 0
DWIDTH 6 0
BBX 4 5 1 0
BITMAP
70
80
60
10
E0
ENDCHAR
STARTCHAR r
ENCODING 114
SWIDTH 409 0
DWIDTH 5 0
BBX 4 5 1 0
BITMAP
B0
C0
80
80
80
ENDCHAR
STARTCHAR q
ENCODING 113
SWIDTH 630 0
DWIDTH 7 0
BBX 5 6 1 -1
BITMAP
78
88
88
98
68
08
ENDCHAR
STARTCHAR p
ENCODING 112
SWIDTH 630 0
DWIDTH 8 0
BBX 5 6 2 -1
BITMAP
B0
C8
88
88
F0
80
ENDCHAR
STARTCHAR o
ENCODING 111
SWIDTH 614 0
DWIDTH 7 0
BBX 6 5 1 0
BITMAP
70
88
88
88
70
ENDCHAR
STARTCHAR n
ENCODING 110
SWIDTH 620 0
DWIDTH 8 0
BBX 5 5 2 0
BITMAP
B0
C8
88
88
88
ENDCHAR
STARTCHAR m
ENCODING 109
SWIDTH 934 0
DWIDTH 12 0
BBX 9 5 2 0
BITMAP
B300
CC80
8880
8880
8880
ENDCHAR
STARTCHAR l
ENCODING 108
SWIDTH 289 0
DWIDTH 4 0
BBX 1 7 2 0
BITMAP
80
80
80
80
80
80
80
ENDCHAR
STARTCHAR k
ENCODING 107
SWIDTH 585 0
DWIDTH 7 0
BBX 5 7 2 0
BITMAP
80
80
88
90
E0
90
88
ENDCHAR
STARTCHAR j
ENCODING 106
SWIDTH 304 0
DWIDTH 4 0
BBX 3 8 0 -1
BITMAP
20
00
20
20
20
20
20
C0
ENDCHAR
STARTCHAR i
ENCODING 105
SWIDTH 289 0
DWIDTH 4 0
BBX 1 7 2 0
BITMAP
80
00
80
80
80
80
80
ENDCHAR
STARTCHAR h
ENCODING 104
SWIDTH 620 0
DWIDTH 8 0
BBX 5 7 2 0
BITMAP
80
80
B0
C8
88
88
88
ENDCHAR
STARTCHAR g
ENCODING 103
SWIDTH 623 0
DWIDTH 7 0
BBX 5 6 1 -1
BITMAP
78
88
98
68
08
70
ENDCHAR
STARTCHAR f
ENCODING 102
SWIDTH 367 0
DWIDTH 5 0
BBX 4 7 1 0
BITMAP
30
40
F0
40
40
40
40
ENDCHAR
STARTCHAR e
ENCODING 101
SWIDTH 557 0
DWIDTH 7 0
BBX 5 5 1 0
BITMAP
70
88
F8
80
78
ENDCHAR
STARTCHAR d
ENCODING 100
SWIDTH 630 0
DWIDTH 8 0
BBX 5 7 2 0
BITMAP
08
08
78
88
88
98
68
ENDCHAR
STARTCHAR c
ENCODING 99
SWIDTH 518 0
DWIDTH 6 0
BBX 5 5 1 0
BITMAP
78
80
80
80
78
ENDCHAR
STARTCHAR b
ENCODING 98
SWIDTH 630 0
DWIDTH 8 0
BBX 5 7 2 0
BITMAP
80
80
B0
C8
88
88
F0
ENDCHAR
STARTCHAR a
ENCODING 97
SWIDTH 552 0
DWIDTH 7 0
BBX 6 5 1 0
BITMAP
70
08
78
88
74
ENDCHAR
STARTCHAR quoteleft
ENCODING 96
SWIDTH 229 0
DWIDTH 3 0
BBX 2 2 1 5
BITMAP
40
80
ENDCHAR
STARTCHAR underscore
ENCODING 95
SWIDTH 663 0
DWIDTH 8 0
BBX 6 1 1 -1
BITMAP
FC
ENDCHAR
STARTCHAR asciicircum
ENCODING 94
SWIDTH 633 0
DWIDTH 8 0
BBX 5 5 2 2
BITMAP
20
20
50
88
88
ENDCHAR
STARTCHAR bracketright
ENCODING 93
SWIDTH 325 0
DWIDTH 4 0
BBX 3 8 0 -1
BITMAP
E0
20
20
20
20
20
20
E0
ENDCHAR
STARTCHAR backslash
ENCODING 92
SWIDTH 494 0
DWIDTH 6 0
BBX 5 8 1 -1
BITMAP
80
40
40
20
20
10
10
08
ENDCHAR
STARTCHAR bracketleft
ENCODING 91
SWIDTH 325 0
DWIDTH 4 0
BBX 3 8 1 -1
BITMAP
E0
80
80
80
80
80
80
E0
ENDCHAR
STARTCHAR Z
ENCODING 90
SWIDTH 605 0
DWIDTH 8 0
BBX 6 7 1 0
BITMAP
FC
08
10
20
40
80
FC
ENDCHAR
STARTCHAR Y
ENCODING 89
SWIDTH 623 0
DWIDTH 8 0
BBX 7 7 1 0
BITMAP
82
82
44
28
10
10
10
ENDCHAR
STARTCHAR X
ENCODING 88
SWIDTH 626 0
DWIDTH 8 0
BBX 6 7 1 0
BITMAP
84
84
48
30
48
84
84
ENDCHAR
STARTCHAR W
ENCODING 87
SWIDTH 855 0
DWIDTH 11 0
BBX 9 7 1 0
BITMAP
8080
8080
8880
5500
5500
2200
2200
ENDCHAR
STARTCHAR V
ENCODING 86
SWIDTH 654 0
DWIDTH 8 0
BBX 6 7 1 0
BITMAP
84
84
84
48
48
30
30
ENDCHAR
STARTCHAR U
ENCODING 85
SWIDTH 693 0
DWIDTH 9 0
BBX 6 7 2 0
BITMAP
84
84
84
84
84
84
78
ENDCHAR
STARTCHAR T
ENCODING 84
SWIDTH 633 0
DWIDTH 8 0
BBX 7 7 1 0
BITMAP
FE
10
10
10
10
10
10
ENDCHAR
STARTCHAR S
ENCODING 83
SWIDTH 539 0
DWIDTH 7 0
BBX 5 7 1 0
BITMAP
78
80
80
70
08
08
F0
ENDCHAR
STARTCHAR R
ENCODING 82
SWIDTH 633 0
DWIDTH 8 0
BBX 5 7 2 0
BITMAP
F0
88
88
F0
90
88
88
ENDCHAR
STARTCHAR Q
ENCODING 81
SWIDTH 777 0
DWIDTH 10 0
BBX 9 8 1 -1
BITMAP
3C00
4200
8100
8100
8100
4200
3C00
0700
ENDCHAR
STARTCHAR P
ENCODING 80
SWIDTH 553 0
DWIDTH 8 0
BBX 5 7 2 0
BITMAP
F0
88
88
88
F0
80
80
ENDCHAR
STARTCHAR O
ENCODING 79
SWIDTH 777 0
DWIDTH 10 0
BBX 8 7 1 0
BITMAP
3C
42
81
81
81
42
3C
ENDCHAR
STARTCHAR N
ENCODING 78
SWIDTH 741 0
DWIDTH 9 0
BBX 6 7 2 0
BITMAP
84
C4
A4
94
94
8C
84
ENDCHAR
STARTCHAR M
ENCODING 77
SWIDTH 861 0
DWIDTH 11 0
BBX 7 7 2 0
BITMAP
82
C6
AA
AA
92
82
82
ENDCHAR
STARTCHAR L
ENCODING 76
SWIDTH 533 0
DWIDTH 6 0
BBX 4 7 2 0
BITMAP
80
80
80
80
80
80
F0
ENDCHAR
STARTCHAR K
ENCODING 75
SWIDTH 653 0
DWIDTH 8 0
BBX 6 7 2 0
BITMAP
84
88
90
E0
90
88
84
ENDCHAR
STARTCHAR J
ENCODING 74
SWIDTH 311 0
DWIDTH 4 0
BBX 3 8 0 -1
BITMAP
20
20
20
20
20
20
20
C0
ENDCHAR
STARTCHAR I
ENCODING 73
SWIDTH 289 0
DWIDTH 4 0
BBX 1 7 2 0
BITMAP
80
80
80
80
80
80
80
ENDCHAR
STARTCHAR H
ENCODING 72
SWIDTH 735 0
DWIDTH 9 0
BBX 6 7 2 0
BITMAP
84
84
84
FC
84
84
84
ENDCHAR
STARTCHAR G
ENCODING 71
SWIDTH 723 0
DWIDTH 9 0
BBX 7 7 1 0
BITMAP
3C
42
80
80
82
42
3E
ENDCHAR
STARTCHAR F
ENCODING 70
SWIDTH 536 0
DWIDTH 7 0
BBX 4 7 2 0
BITMAP
F0
80
80
F0
80
80
80
ENDCHAR
STARTCHAR E
ENCODING 69
SWIDTH 542 0
DWIDTH 7 0
BBX 5 7 1 0
BITMAP
F8
80
80
F0
80
80
F8
ENDCHAR
STARTCHAR D
ENCODING 68
SWIDTH 749 0
DWIDTH 9 0
BBX 7 7 1 0
BITMAP
F8
84
82
82
82
84
F8
ENDCHAR
STARTCHAR C
ENCODING 67
SWIDTH 692 0
DWIDTH 9 0
BBX 7 7 1 0
BITMAP
3C
42
80
80
80
42
3C
ENDCHAR
STARTCHAR B
ENCODING 66
SWIDTH 575 0
DWIDTH 7 0
BBX 5 7 1 0
BITMAP
F0
88
88
F0
88
88
F0
ENDCHAR
STARTCHAR A
ENCODING 65
SWIDTH 690 0
DWIDTH 8 0
BBX 6 7 1 0
BITMAP
30
30
48
48
FC
84
84
ENDCHAR
STARTCHAR at
ENCODING 64
SWIDTH 858 0
DWIDTH 11 0
BBX 9 7 1 0
BITMAP
3E00
4F00
9100
9300
8D80
4000
3F00
ENDCHAR
STARTCHAR question
ENCODING 63
SWIDTH 422 0
DWIDTH 6 0
BBX 5 7 1 0
BITMAP
F0
08
08
70
40
00
40
ENDCHAR
STARTCHAR greater
ENCODING 62
SWIDTH 633 0
DWIDTH 8 0
BBX 6 5 1 1
BITMAP
60
18
04
18
60
ENDCHAR
STARTCHAR equal
ENCODING 61
SWIDTH 633 0
DWIDTH 8 0
BBX 7 3 1 2
BITMAP
FC
00
FC
ENDCHAR
STARTCHAR less
ENCODING 60
SWIDTH 633 0
DWIDTH 8 0
BBX 6 7 1 0
BITMAP
00
18
60
80
60
18
00
ENDCHAR
STARTCHAR semicolon
ENCODING 59
SWIDTH 205 0
DWIDTH 3 0
BBX 2 6 0 -1
BITMAP
40
00
00
00
40
80
ENDCHAR
STARTCHAR colon
ENCODING 58
SWIDTH 205 0
DWIDTH 3 0
BBX 1 5 1 0
BITMAP
80
00
00
00
80
ENDCHAR
STARTCHAR nine
ENCODING 57
SWIDTH 633 0
DWIDTH 8 0
BBX 6 7 1 0
BITMAP
78
84
84
7C
04
84
78
ENDCHAR
STARTCHAR eight
ENCODING 56
SWIDTH 633 0
DWIDTH 8 0
BBX 6 7 1 0
BITMAP
78
84
84
78
84
84
78
ENDCHAR
STARTCHAR seven
ENCODING 55
SWIDTH 633 0
DWIDTH 8 0
BBX 6 7 1 0
BITMAP
FC
04
08
10
20
20
20
ENDCHAR
STARTCHAR six
ENCODING 54
SWIDTH 633 0
DWIDTH 8 0
BBX 6 7 1 0
BITMAP
78
84
80
F8
84
84
78
ENDCHAR
STARTCHAR five
ENCODING 53
SWIDTH 633 0
DWIDTH 8 0
BBX 6 7 1 0
BITMAP
FC
80
80
F8
04
84
78
ENDCHAR
STARTCHAR four
ENCODING 52
SWIDTH 633 0
DWIDTH 8 0
BBX 7 7 0 0
BITMAP
0C
14
24
44
FE
04
04
ENDCHAR
STARTCHAR three
ENCODING 51
SWIDTH 633 0
DWIDTH 8 0
BBX 6 7 1 0
BITMAP
78
84
04
38
04
84
78
ENDCHAR
STARTCHAR two
ENCODING 50
SWIDTH 633 0
DWIDTH 8 0
BBX 6 7 1 0
BITMAP
78
84
04
08
30
40
FC
ENDCHAR
STARTCHAR one
ENCODING 49
SWIDTH 633 0
DWIDTH 8 0
BBX 3 7 2 0
BITMAP
20
E0
20
20
20
20
20
ENDCHAR
STARTCHAR zero
ENCODING 48
SWIDTH 633 0
DWIDTH 8 0
BBX 6 7 1 0
BITMAP
30
48
84
84
84
48
30
ENDCHAR
STARTCHAR slash
ENCODING 47
SWIDTH 494 0
DWIDTH 6 0
BBX 5 8 1 -1
BITMAP
08
10
10
20
20
40
40
80
ENDCHAR
STARTCHAR period
ENCODING 46
SWIDTH 229 0
DWIDTH 3 0
BBX 1 2 1 0
BITMAP
80
80
ENDCHAR
STARTCHAR hyphen
ENCODING 45
SWIDTH 325 0
DWIDTH 4 0
BBX 3 1 1 3
BITMAP
E0
ENDCHAR
STARTCHAR comma
ENCODING 44
SWIDTH 229 0
DWIDTH 3 0
BBX 2 3 0 -1
BITMAP
40
40
80
ENDCHAR
STARTCHAR plus
ENCODING 43
SWIDTH 633 0
DWIDTH 8 0
BBX 7 5 1 1
BITMAP
10
10
FE
10
10
ENDCHAR
STARTCHAR asterisk
ENCODING 42
SWIDTH 482 0
DWIDTH 6 0
BBX 5 5 1 3
BITMAP
20
A8
50
A8
20
ENDCHAR
STARTCHAR parenright
ENCODING 41
SWIDTH 325 0
DWIDTH 4 0
BBX 3 8 0 -1
BITMAP
80
40
20
20
20
20
40
80
ENDCHAR
STARTCHAR parenleft
ENCODING 40
SWIDTH 325 0
DWIDTH 4 0
BBX 3 8 1 -1
BITMAP
20
40
80
80
80
80
40
20
ENDCHAR
STARTCHAR quoteright
ENCODING 39
SWIDTH 229 0
DWIDTH 3 0
BBX 2 2 1 5
BITMAP
40
80
ENDCHAR
STARTCHAR ampersand
ENCODING 38
SWIDTH 697 0
DWIDTH 9 0
BBX 8 7 1 0
BITMAP
38
44
28
71
89
86
79
ENDCHAR
STARTCHAR percent
ENCODING 37
SWIDTH 669 0
DWIDTH 9 0
BBX 8 7 0 0
BITMAP
30
4A
34
08
36
49
06
ENDCHAR
STARTCHAR dollar
ENCODING 36
SWIDTH 633 0
DWIDTH 8 0
BBX 6 9 1 -1
BITMAP
20
78
A0
A0
70
28
28
F0
20
ENDCHAR
STARTCHAR numbersign
ENCODING 35
SWIDTH 633 0
DWIDTH 8 0
BBX 6 8 1 0
BITMAP
00
48
48
FC
48
FC
48
48
ENDCHAR
STARTCHAR quotedbl
ENCODING 34
SWIDTH 373 0
DWIDTH 5 0
BBX 3 2 1 5
BITMAP
A0
A0
ENDCHAR
STARTCHAR exclam
ENCODING 33
SWIDTH 205 0
DWIDTH 3 0
BBX 1 7 1 0
BITMAP
80
80
80
80
00
80
80
ENDCHAR
STARTCHAR edieresis
ENCODING -1 1
SWIDTH 557 0
DWIDTH 7 0
BBX 5 7 1 0
BITMAP
50
00
70
88
F8
80
78
ENDCHAR
STARTCHAR egrave
ENCODING -1 1
SWIDTH 557 0
DWIDTH 7 0
BBX 5 8 1 0
BITMAP
40
20
00
70
88
F8
80
78
ENDCHAR
STARTCHAR iacute
ENCODING -1 1
SWIDTH 289 0
DWIDTH 4 0
BBX 3 8 1 0
BITMAP
20
40
00
40
40
40
40
40
ENDCHAR
STARTCHAR icircumflex
ENCODING -1 1
SWIDTH 289 0
DWIDTH 4 0
BBX 3 8 1 0
BITMAP
40
A0
00
40
40
40
40
40
ENDCHAR
STARTCHAR idieresis
ENCODING -1 1
SWIDTH 289 0
DWIDTH 4 0
BBX 3 7 1 0
BITMAP
A0
00
40
40
40
40
40
ENDCHAR
STARTCHAR igrave
ENCODING -1 1
SWIDTH 289 0
DWIDTH 4 0
BBX 3 8 0 0
BITMAP
40
20
00
20
20
20
20
20
ENDCHAR
STARTCHAR ntilde
ENCODING -1 1
SWIDTH 620 0
DWIDTH 8 0
BBX 5 8 2 0
BITMAP
50
A0
00
B0
C8
88
88
88
ENDCHAR
STARTCHAR oacute
ENCODING -1 1
SWIDTH 614 0
DWIDTH 7 0
BBX 6 8 1 0
BITMAP
10
20
00
70
88
88
88
70
ENDCHAR
STARTCHAR ocircumflex
ENCODING -1 1
SWIDTH 614 0
DWIDTH 7 0
BBX 6 8 1 0
BITMAP
20
50
00
70
88
88
88
70
ENDCHAR
STARTCHAR odieresis
ENCODING -1 1
SWIDTH 614 0
DWIDTH 7 0
BBX 6 7 1 0
BITMAP
50
00
70
88
88
88
70
ENDCHAR
STARTCHAR ograve
ENCODING -1 1
SWIDTH 614 0
DWIDTH 7 0
BBX 6 8 1 0
BITMAP
40
20
00
70
88
88
88
70
ENDCHAR
STARTCHAR otilde
ENCODING -1 1
SWIDTH 614 0
DWIDTH 7 0
BBX 6 8 1 0
BITMAP
28
50
00
70
88
88
88
70
ENDCHAR
STARTCHAR scaron
ENCODING -1 1
SWIDTH 510 0
DWIDTH 6 0
BBX 4 8 1 0
BITMAP
50
20
00
70
80
60
10
E0
ENDCHAR
STARTCHAR uacute
ENCODING -1 1
SWIDTH 620 0
DWIDTH 8 0
BBX 5 8 2 0
BITMAP
10
20
00
88
88
88
98
68
ENDCHAR
STARTCHAR ucircumflex
ENCODING -1 1
SWIDTH 620 0
DWIDTH 8 0
BBX 5 8 2 0
BITMAP
20
50
00
88
88
88
98
68
ENDCHAR
STARTCHAR udieresis
ENCODING -1 1
SWIDTH 620 0
DWIDTH 8 0
BBX 5 7 2 0
BITMAP
50
00
88
88
88
98
68
ENDCHAR
STARTCHAR ugrave
ENCODING -1 1
SWIDTH 620 0
DWIDTH 8 0
BBX 5 8 2 0
BITMAP
40
20
00
88
88
88
98
68
ENDCHAR
STARTCHAR yacute
ENCODING -1 1
SWIDTH 568 0
DWIDTH 7 0
BBX 5 9 1 -1
BITMAP
10
20
00
88
88
50
20
20
C0
ENDCHAR
STARTCHAR ydieresis
ENCODING -1 1
SWIDTH 568 0
DWIDTH 7 0
BBX 5 8 1 -1
BITMAP
50
00
88
88
50
20
20
C0
ENDCHAR
STARTCHAR zcaron
ENCODING -1 1
SWIDTH 573 0
DWIDTH 7 0
BBX 5 8 1 0
BITMAP
50
20
00
F8
10
20
40
F8
ENDCHAR
STARTCHAR space
ENCODING 32
SWIDTH 316 0
DWIDTH 4 0
BBX 0 0 0 0
BITMAP
ENDCHAR
ENDFONT

