STARTFONT 2.1
COMMENT
COMMENT @(#)r3Xolfonts:Xol/b12sbarh.bdf	1.2
COMMENT
COMMENT        Copyright (c) 1984 AT&T
COMMENT          All Rights Reserved
COMMENT
COMMENT THIS IS UNPUBLISHED PROPRIETARY SOURCE CODE OF AT&T
COMMENT The copyright notice above does not evidence any
COMMENT actual or intended publication of such source code.
COMMENT
COMMENT This font is used by the Xt+ toolkit to build the
COMMENT oblong OPEN LOOK buttons. The shine mark and more
COMMENT arrow are also in here.
COMMENT
COMMENT OPEN LOOK is a trademark of AT&T
COMMENT
FONT b12sbarh
SIZE 12 76 76
FONTBOUNDINGBOX 14 15 0 -15
STARTPROPERTIES 9
Copyright "Copyright (c) 1988 AT&T, Inc."
FONT_ASCENT 0
FONT_DESCENT 15
MIN_SPACE	15
NORM_SPACE	8
MAX_SPACE	1
END_SPACE	3
SUPERSCRIPT_X	2
SUPERSCRIPT_Y	14
ENDPROPERTIES
COMMENT MIN_SPACE  == ANCHWIDTH
COMMENT NORM_SPACE == ANCHLEN
COMMENT MAX_SPACE  == LINEWIDTH
COMMENT END_SPACE  == CABLEWIDTH
COMMENT SUPERSCRIPT_X == ANCH_GAP_ELEV
COMMENT SUPERSCRIPT_Y == ELEV_PART_LEN
CHARS 13
STARTCHAR cable
ENCODING 1
SWIDTH 945 0
DWIDTH 14 0
BBX 2 15 0 -15
BITMAP
0000
0000
0000
0000
0000
0000
8000
4000
8000
0000
0000
0000
0000
0000
0000
ENDCHAR
STARTCHAR dec_arrow
ENCODING 2
SWIDTH 945 0
DWIDTH 14 0
BBX 14 15 0 -15
BITMAP
fffc
8004
8004
81c4
83c4
87c4
8fc4
8fc4
87c4
83c4
81c4
8004
8004
fffc
fffc
ENDCHAR
STARTCHAR drag_box
ENCODING 3
SWIDTH 945 0
DWIDTH 14 0
BBX 14 15 0 -15
BITMAP
fffc
0004
0004
0004
0004
0004
0004
0004
0004
0004
0004
0004
0004
fffc
fffc
ENDCHAR
STARTCHAR inc_arrow
ENCODING 4
SWIDTH 945 0
DWIDTH 14 0
BBX 14 15 0 -15
BITMAP
fffc
000c
000c
1c0c
1e0c
1f0c
1f8c
1f8c
1f0c
1e0c
1c0c
000c
000c
fffc
fffc
ENDCHAR
STARTCHAR dec_iarrow
ENCODING 5
SWIDTH 945 0
DWIDTH 14 0
BBX 14 15 0 -15
BITMAP
fffc
8004
bff4
be34
bc34
b834
b034
b034
b834
bc34
be34
bff4
8004
fffc
fffc
ENDCHAR
STARTCHAR idrag_box
ENCODING 6
SWIDTH 945 0
DWIDTH 14 0
BBX 14 15 0 -15
BITMAP
fffc
0004
7ff4
7ff4
7ff4
7ff4
7ff4
7ff4
7ff4
7ff4
7ff4
7ff4
0004
fffc
fffc
ENDCHAR
STARTCHAR inc_iarrow
ENCODING 7
SWIDTH 945 0
DWIDTH 14 0
BBX 14 15 0 -15
BITMAP
fffc
000c
7fec
63ec
61ec
60ec
606c
606c
60ec
61ec
63ec
7fec
000c
fffc
fffc
ENDCHAR
STARTCHAR anchwidth
ENCODING 8
SWIDTH 945 0
DWIDTH 15  0
BBX 15  1 0 -1
BITMAP
000000
ENDCHAR
STARTCHAR anchlen
ENCODING 9
SWIDTH 945 0
DWIDTH 8  0
BBX 8  1 0 -1
BITMAP
000000
ENDCHAR
STARTCHAR linewidth
ENCODING 10
SWIDTH 945 0
DWIDTH 1  0
BBX 1  1 0 -1
BITMAP
000000
ENDCHAR
STARTCHAR cablewidth
ENCODING 11
SWIDTH 945 0
DWIDTH 3  0
BBX 3  1 0 -1
BITMAP
000000
ENDCHAR
STARTCHAR anch_gap_len
ENCODING 12
SWIDTH 945 0
DWIDTH 2  0
BBX 2  1 0 -1
BITMAP
000000
ENDCHAR
STARTCHAR elev_part_len
ENCODING 13
SWIDTH 945 0
DWIDTH 14  0
BBX 14  1 0 -1
BITMAP
000000
ENDCHAR
ENDFONT
