STARTFONT 2.1
COMMENT
COMMENT @(#)r3Xolfonts:Xol/c12sbarv.bdf	1.2
COMMENT
COMMENT        Copyright (c) 1984 AT&T
COMMENT          All Rights Reserved
COMMENT
COMMENT THIS IS UNPUBLISHED PROPRIETARY SOURCE CODE OF AT&T
COMMENT The copyright notice above does not evidence any
COMMENT actual or intended publication of such source code.
COMMENT
COMMENT This font is used by the Xt+ toolkit to build the
COMMENT oblong OPEN LOOK buttons. The shine mark and more
COMMENT arrow are also in here.
COMMENT
COMMENT OPEN LOOK is a trademark of AT&T
COMMENT
FONT c12sbarv
SIZE 12 76 76
FONTBOUNDINGBOX 15 16 0 -16
STARTPROPERTIES 9
Copyright "Copyright (c) 1988 AT&T, Inc."
FONT_ASCENT 0
FONT_DESCENT 16
MIN_SPACE	15
NORM_SPACE	8
MAX_SPACE	1
END_SPACE	3
SUPERSCRIPT_X	1
SUPERSCRIPT_Y	16
ENDPROPERTIES
COMMENT MIN_SPACE  == ANCHWIDTH
COMMENT NORM_SPACE == ANCHLEN
COMMENT MAX_SPACE  == LINEWIDTH
COMMENT END_SPACE  == CABLEWIDTH
COMMENT SUPERSCRIPT_X == ANCH_GAP_ELEV
COMMENT SUPERSCRIPT_Y == ELEV_PART_LEN
CHARS 13
STARTCHAR cable
ENCODING 1
SWIDTH 945 0
DWIDTH 15 0
BBX 15 2 0 -2
BITMAP
0280
0100
ENDCHAR
STARTCHAR dec_arrow
ENCODING 2
SWIDTH 945 0
DWIDTH 15 0
BBX 15 16 0 -16
BITMAP
fffe
8006
8006
8006
8006
8306
8786
8fc6
9fe6
9fe6
8006
8006
8006
8006
8006
fffe
ENDCHAR
STARTCHAR drag_box
ENCODING 3
SWIDTH 945 0
DWIDTH 15 0
BBX 15 16 0 -16
BITMAP
8006
8006
8006
8006
8006
8006
8006
8006
8006
8006
8006
8006
8006
8006
8006
fffe
ENDCHAR
STARTCHAR inc_arrow
ENCODING 4
SWIDTH 945 0
DWIDTH 15 0
BBX 15 16 0 -16
BITMAP
8006
8006
8006
8006
8006
9fe6
9fe6
8fc6
8786
8306
8006
8006
8006
8006
fffe
fffe
ENDCHAR
STARTCHAR dec_iarrow
ENCODING 5
SWIDTH 945 0
DWIDTH 15 0
BBX 15 16 0 -16
BITMAP
fffe
8006
bff6
bff6
bff6
bcf6
b876
b036
a016
a016
bff6
bff6
bff6
bff6
8006
fffe
ENDCHAR
STARTCHAR idrag_box
ENCODING 6
SWIDTH 945 0
DWIDTH 15 0
BBX 15 16 0 -16
BITMAP
8006
bff6
bff6
bff6
bff6
bff6
bff6
bff6
bff6
bff6
bff6
bff6
bff6
bff6
8006
fffe
ENDCHAR
STARTCHAR inc_iarrow
ENCODING 7
SWIDTH 945 0
DWIDTH 15 0
BBX 15 16 0 -16
BITMAP
8006
bff6
bff6
bff6
bff6
a016
a016
b036
b876
bcf6
bff6
bff6
bff6
8006
fffe
fffe
ENDCHAR
STARTCHAR anchwidth
ENCODING 8
SWIDTH 945 0
DWIDTH 15  0
BBX 15  1 0 -1
BITMAP
000000
ENDCHAR
STARTCHAR anchlen
ENCODING 9
SWIDTH 945 0
DWIDTH 8  0
BBX 8  1 0 -1
BITMAP
000000
ENDCHAR
STARTCHAR linewidth
ENCODING 10
SWIDTH 945 0
DWIDTH 1  0
BBX 1  1 0 -1
BITMAP
000000
ENDCHAR
STARTCHAR cablewidth
ENCODING 11
SWIDTH 945 0
DWIDTH 3  0
BBX 3  1 0 -1
BITMAP
000000
ENDCHAR
STARTCHAR anch_gap_len
ENCODING 12
SWIDTH 945 0
DWIDTH 1  0
BBX 1  1 0 -1
BITMAP
000000
ENDCHAR
STARTCHAR elev_part_len
ENCODING 13
SWIDTH 945 0
DWIDTH 16  0
BBX 16  1 0 -1
BITMAP
000000
ENDCHAR
ENDFONT
