STARTFONT 2.1
COMMENT
COMMENT @(#)r3Xolfonts:Xol/c12sbarh.bdf	1.2
COMMENT
COMMENT        Copyright (c) 1984 AT&T
COMMENT          All Rights Reserved
COMMENT
COMMENT THIS IS UNPUBLISHED PROPRIETARY SOURCE CODE OF AT&T
COMMENT The copyright notice above does not evidence any
COMMENT actual or intended publication of such source code.
COMMENT
COMMENT This font is used by the Xt+ toolkit to build the
COMMENT oblong OPEN LOOK buttons. The shine mark and more
COMMENT arrow are also in here.
COMMENT
COMMENT OPEN LOOK is a trademark of AT&T
COMMENT
FONT c12sbarh
SIZE 12 76 76
FONTBOUNDINGBOX 16 15 0 -15
STARTPROPERTIES 9
Copyright "Copyright (c) 1988 AT&T, Inc."
FONT_ASCENT 0
FONT_DESCENT 15
MIN_SPACE	15
NORM_SPACE	8
MAX_SPACE	1
END_SPACE	3
SUPERSCRIPT_X	2
SUPERSCRIPT_Y	16
ENDPROPERTIES
COMMENT MIN_SPACE  == ANCHWIDTH
COMMENT NORM_SPACE == ANCHLEN
COMMENT MAX_SPACE  == LINEWIDTH
COMMENT END_SPACE  == CABLEWIDTH
COMMENT SUPERSCRIPT_X == ANCH_GAP_ELEV
COMMENT SUPERSCRIPT_Y == ELEV_PART_LEN
CHARS 13
STARTCHAR cable
ENCODING 1
SWIDTH 945 0
DWIDTH 16 0
BBX 2 15 0 -15
BITMAP
0000
0000
0000
0000
0000
0000
8000
4000
8000
0000
0000
0000
0000
0000
0000
ENDCHAR
STARTCHAR dec_arrow
ENCODING 2
SWIDTH 945 0
DWIDTH 16 0
BBX 16 15 0 -15
BITMAP
ffff
8001
8001
80c1
81c1
83c1
87c1
87c1
83c1
81c1
80c1
8001
8001
ffff
ffff
ENDCHAR
STARTCHAR drag_box
ENCODING 3
SWIDTH 945 0
DWIDTH 16 0
BBX 16 15 0 -15
BITMAP
ffff
0001
0001
0001
0001
0001
0001
0001
0001
0001
0001
0001
0001
ffff
ffff
ENDCHAR
STARTCHAR inc_arrow
ENCODING 4
SWIDTH 945 0
DWIDTH 16 0
BBX 16 15 0 -15
BITMAP
ffff
0003
0003
0603
0703
0783
07c3
07c3
0783
0703
0603
0003
0003
ffff
ffff
ENDCHAR
STARTCHAR dec_iarrow
ENCODING 5
SWIDTH 945 0
DWIDTH 16 0
BBX 16 15 0 -15
BITMAP
ffff
8001
bffd
bf3d
be3d
bc3d
b83d
b83d
bc3d
be3d
bf3d
bffd
8001
ffff
ffff
ENDCHAR
STARTCHAR idrag_box
ENCODING 6
SWIDTH 945 0
DWIDTH 16 0
BBX 16 15 0 -15
BITMAP
ffff
0001
7ffd
7ffd
7ffd
7ffd
7ffd
7ffd
7ffd
7ffd
7ffd
7ffd
0001
ffff
ffff
ENDCHAR
STARTCHAR inc_iarrow
ENCODING 7
SWIDTH 945 0
DWIDTH 16 0
BBX 16 15 0 -15
BITMAP
ffff
0003
7ffb
79fb
78fb
787b
783b
783b
787b
78fb
79fb
7ffb
0003
ffff
ffff
ENDCHAR
STARTCHAR anchwidth
ENCODING 8
SWIDTH 945 0
DWIDTH 15  0
BBX 15  1 0 -1
BITMAP
000000
ENDCHAR
STARTCHAR anchlen
ENCODING 9
SWIDTH 945 0
DWIDTH 8  0
BBX 8  1 0 -1
BITMAP
000000
ENDCHAR
STARTCHAR linewidth
ENCODING 10
SWIDTH 945 0
DWIDTH 1  0
BBX 1  1 0 -1
BITMAP
000000
ENDCHAR
STARTCHAR cablewidth
ENCODING 11
SWIDTH 945 0
DWIDTH 3  0
BBX 3  1 0 -1
BITMAP
000000
ENDCHAR
STARTCHAR anch_gap_len
ENCODING 12
SWIDTH 945 0
DWIDTH 2  0
BBX 2  1 0 -1
BITMAP
000000
ENDCHAR
STARTCHAR elev_part_len
ENCODING 13
SWIDTH 945 0
DWIDTH 16  0
BBX 16  1 0 -1
BITMAP
000000
ENDCHAR
ENDFONT
