STARTFONT 2.1
COMMENT
COMMENT @(#)r3Xolfonts:Xol/d12sbarh.bdf	1.2
COMMENT
COMMENT        Copyright (c) 1984 AT&T
COMMENT          All Rights Reserved
COMMENT
COMMENT THIS IS UNPUBLISHED PROPRIETARY SOURCE CODE OF AT&T
COMMENT The copyright notice above does not evidence any
COMMENT actual or intended publication of such source code.
COMMENT
COMMENT This font is used by the Xt+ toolkit to build the
COMMENT oblong OPEN LOOK buttons. The shine mark and more
COMMENT arrow are also in here.
COMMENT
COMMENT OPEN LOOK is a trademark of AT&T
COMMENT
FONT d12sbarh
SIZE 12 95 95
FONTBOUNDINGBOX 20 19 0 -19
STARTPROPERTIES 9
Copyright "Copyright (c) 1988 AT&T, Inc."
FONT_ASCENT 0
FONT_DESCENT 19
MIN_SPACE	19
NORM_SPACE	10
MAX_SPACE	1
END_SPACE	3
SUPERSCRIPT_X	3
SUPERSCRIPT_Y	20
ENDPROPERTIES
COMMENT MIN_SPACE  == ANCHWIDTH
COMMENT NORM_SPACE == ANCHLEN
COMMENT MAX_SPACE  == LINEWIDTH
COMMENT END_SPACE  == CABLEWIDTH
COMMENT SUPERSCRIPT_X == ANCH_GAP_ELEV
COMMENT SUPERSCRIPT_Y == ELEV_PART_LEN
CHARS 13
STARTCHAR cable
ENCODING 1
SWIDTH 945 0
DWIDTH 20 0
BBX 2 19 0 -19
BITMAP
000000
000000
000000
000000
000000
000000
000000
000000
800000
400000
800000
000000
000000
000000
000000
000000
000000
000000
000000
ENDCHAR
STARTCHAR dec_arrow
ENCODING 2
SWIDTH 945 0
DWIDTH 20 0
BBX 20 19 0 -19
BITMAP
fffff0
800010
800010
800010
803810
807810
80f810
81f810
83f810
83f810
81f810
80f810
807810
803810
800010
800010
800010
fffff0
fffff0
ENDCHAR
STARTCHAR drag_box
ENCODING 3
SWIDTH 945 0
DWIDTH 20 0
BBX 20 19 0 -19
BITMAP
fffff0
000010
000010
000010
000010
000010
000010
000010
000010
000010
000010
000010
000010
000010
000010
000010
000010
fffff0
fffff0
ENDCHAR
STARTCHAR inc_arrow
ENCODING 4
SWIDTH 945 0
DWIDTH 20 0
BBX 20 19 0 -19
BITMAP
fffff0
000030
000030
000030
038030
03c030
03e030
03f030
03f830
03f830
03f030
03e030
03c030
038030
000030
000030
000030
fffff0
fffff0
ENDCHAR
STARTCHAR dec_iarrow
ENCODING 5
SWIDTH 945 0
DWIDTH 20 0
BBX 20 19 0 -19
BITMAP
fffff0
800010
bfffd0
bfffd0
bfc7d0
bf87d0
bf07d0
be07d0
bc07d0
bc07d0
be07d0
bf07d0
bf87d0
bfc7d0
bfffd0
bfffd0
800010
fffff0
fffff0
ENDCHAR
STARTCHAR idrag_box
ENCODING 6
SWIDTH 945 0
DWIDTH 20 0
BBX 20 19 0 -19
BITMAP
fffff0
000010
7fffd0
7fffd0
7fffd0
7fffd0
7fffd0
7fffd0
7fffd0
7fffd0
7fffd0
7fffd0
7fffd0
7fffd0
7fffd0
7fffd0
000010
fffff0
fffff0
ENDCHAR
STARTCHAR inc_iarrow
ENCODING 7
SWIDTH 945 0
DWIDTH 20 0
BBX 20 19 0 -19
BITMAP
fffff0
000030
7fffb0
7fffb0
7c7fb0
7c3fb0
7c1fb0
7c0fb0
7c07b0
7c07b0
7c0fb0
7c1fb0
7c3fb0
7c7fb0
7fffb0
7fffb0
000030
fffff0
fffff0
ENDCHAR
STARTCHAR anchwidth
ENCODING 8
SWIDTH 945 0
DWIDTH 19  0
BBX 19  1 0 -1
BITMAP
000000
ENDCHAR
STARTCHAR anchlen
ENCODING 9
SWIDTH 945 0
DWIDTH 10  0
BBX 10  1 0 -1
BITMAP
000000
ENDCHAR
STARTCHAR linewidth
ENCODING 10
SWIDTH 945 0
DWIDTH 1  0
BBX 1  1 0 -1
BITMAP
000000
ENDCHAR
STARTCHAR cablewidth
ENCODING 11
SWIDTH 945 0
DWIDTH 3  0
BBX 3  1 0 -1
BITMAP
000000
ENDCHAR
STARTCHAR anch_gap_len
ENCODING 12
SWIDTH 945 0
DWIDTH 3  0
BBX 3  1 0 -1
BITMAP
000000
ENDCHAR
STARTCHAR elev_part_len
ENCODING 13
SWIDTH 945 0
DWIDTH 20  0
BBX 20  1 0 -1
BITMAP
000000
ENDCHAR
ENDFONT
