STARTFONT 2.1
COMMENT
COMMENT @(#)r3Xolfonts:Xol/d12sldrh.bdf	1.2
COMMENT
COMMENT        Copyright (c) 1984 AT&T
COMMENT          All Rights Reserved
COMMENT
COMMENT THIS IS UNPUBLISHED PROPRIETARY SOURCE CODE OF AT&T
COMMENT The copyright notice above does not evidence any
COMMENT actual or intended publication of such source code.
COMMENT
COMMENT This font is used by the Xt+ toolkit to build the
COMMENT oblong OPEN LOOK buttons. The shine mark and more
COMMENT arrow are also in here.
COMMENT
COMMENT OPEN LOOK is a trademark of AT&T
COMMENT
FONT d12sldrh
SIZE 12 95 95
FONTBOUNDINGBOX 14 18 0 -18
STARTPROPERTIES 11
Copyright "Copyright (c) 1988 AT&T, Inc."
FONT_ASCENT 0
FONT_DESCENT 18
MIN_SPACE	14
NORM_SPACE	8
MAX_SPACE	1
END_SPACE	6
SUPERSCRIPT_X	4
SUPERSCRIPT_Y	14
SUBSCRIPT_X	18
SUBSCRIPT_Y	3
ENDPROPERTIES
COMMENT MIN_SPACE  == ANCHWIDTH
COMMENT NORM_SPACE == ANCHLEN
COMMENT MAX_SPACE  == LINEWIDTH
COMMENT END_SPACE  == CABLEWIDTH
COMMENT SUPERSCRIPT_X == ANCH_GAP_ELEV
COMMENT SUPERSCRIPT_Y == ELEV_PART_LEN
COMMENT SUBSCRIPT_X == ELEV_WIDTH
COMMENT SUBSCRIPT_Y == ROUNDLEN
CHARS 13
STARTCHAR drag_box
ENCODING 3
SWIDTH 945 0
DWIDTH 14 0
BBX 14 18 0 -18
BITMAP
fffc
800c
800c
800c
800c
800c
800c
800c
800c
800c
800c
800c
800c
800c
800c
800c
fffc
fffc
ENDCHAR
STARTCHAR idrag_box
ENCODING 6
SWIDTH 945 0
DWIDTH 14 0
BBX 14 18 0 -18
BITMAP
fffc
800c
bfec
bfec
bfec
bfec
bfec
bfec
bfec
bfec
bfec
bfec
bfec
bfec
bfec
800c
fffc
fffc
ENDCHAR
STARTCHAR icable_tip1
ENCODING 8
SWIDTH 945 0
DWIDTH 3 0
BBX 3 18 0 -18
BITMAP
0000
0000
0000
0000
0000
0000
8000
4000
2000
2000
4000
8000
0000
0000
0000
0000
0000
0000
ENDCHAR
STARTCHAR icable_tip2
ENCODING 9
SWIDTH 945 0
DWIDTH 3 0
BBX 3 18 0 -18
BITMAP
0000
0000
0000
0000
0000
0000
0000
8000
c000
c000
8000
0000
0000
0000
0000
0000
0000
0000
ENDCHAR
STARTCHAR dcable_tip
ENCODING 10
SWIDTH 945 0
DWIDTH 3 0
BBX 3 18 0 -18
BITMAP
0000
0000
0000
0000
0000
0000
2000
6000
e000
e000
6000
2000
0000
0000
0000
0000
0000
0000
ENDCHAR
STARTCHAR anchwidth
ENCODING 11
SWIDTH 945 0
DWIDTH 14  0
BBX 14  1 0 -1
BITMAP
000000
ENDCHAR
STARTCHAR anchlen
ENCODING 12
SWIDTH 945 0
DWIDTH 8  0
BBX 8  1 0 -1
BITMAP
000000
ENDCHAR
STARTCHAR linewidth
ENCODING 13
SWIDTH 945 0
DWIDTH 1  0
BBX 1  1 0 -1
BITMAP
000000
ENDCHAR
STARTCHAR cablewidth
ENCODING 14
SWIDTH 945 0
DWIDTH 6  0
BBX 6  1 0 -1
BITMAP
000000
ENDCHAR
STARTCHAR anch_gap_len
ENCODING 15
SWIDTH 945 0
DWIDTH 4  0
BBX 4  1 0 -1
BITMAP
000000
ENDCHAR
STARTCHAR elev_part_len
ENCODING 16
SWIDTH 945 0
DWIDTH 14  0
BBX 14  1 0 -1
BITMAP
000000
ENDCHAR
STARTCHAR elev_width
ENCODING 17
SWIDTH 945 0
DWIDTH 18  0
BBX 18  1 0 -1
BITMAP
000000
ENDCHAR
STARTCHAR roundlen
ENCODING 18
SWIDTH 945 0
DWIDTH 3  0
BBX 3  1 0 -1
BITMAP
000000
ENDCHAR
ENDFONT
