STARTFONT 2.1
COMMENT
COMMENT @(#)r3Xolfonts:Xol/d12sbarv.bdf	1.2
COMMENT
COMMENT        Copyright (c) 1984 AT&T
COMMENT          All Rights Reserved
COMMENT
COMMENT THIS IS UNPUBLISHED PROPRIETARY SOURCE CODE OF AT&T
COMMENT The copyright notice above does not evidence any
COMMENT actual or intended publication of such source code.
COMMENT
COMMENT This font is used by the Xt+ toolkit to build the
COMMENT oblong OPEN LOOK buttons. The shine mark and more
COMMENT arrow are also in here.
COMMENT
COMMENT OPEN LOOK is a trademark of AT&T
COMMENT
FONT d12sbarv
SIZE 12 95 95
FONTBOUNDINGBOX 19 20 0 -20
STARTPROPERTIES 9
Copyright "Copyright (c) 1988 AT&T, Inc."
FONT_ASCENT 0
FONT_DESCENT 20
MIN_SPACE	19
NORM_SPACE	10
MAX_SPACE	1
END_SPACE	3
SUPERSCRIPT_X	3
SUPERSCRIPT_Y	20
ENDPROPERTIES
COMMENT MIN_SPACE  == ANCHWIDTH
COMMENT NORM_SPACE == ANCHLEN
COMMENT MAX_SPACE  == LINEWIDTH
COMMENT END_SPACE  == CABLEWIDTH
COMMENT SUPERSCRIPT_X == ANCH_GAP_ELEV
COMMENT SUPERSCRIPT_Y == ELEV_PART_LEN
CHARS 13
STARTCHAR cable
ENCODING 1
SWIDTH 945 0
DWIDTH 19 0
BBX 19 2 0 -2
BITMAP
00a000
004000
ENDCHAR
STARTCHAR dec_arrow
ENCODING 2
SWIDTH 945 0
DWIDTH 19 0
BBX 19 20 0 -20
BITMAP
ffffe0
800060
800060
800060
800060
800060
80c060
81e060
83f060
87f860
8ffc60
8ffc60
8ffc60
800060
800060
800060
800060
800060
800060
ffffe0
ENDCHAR
STARTCHAR drag_box
ENCODING 3
SWIDTH 945 0
DWIDTH 19 0
BBX 19 20 0 -20
BITMAP
800060
800060
800060
800060
800060
800060
800060
800060
800060
800060
800060
800060
800060
800060
800060
800060
800060
800060
800060
ffffe0
ENDCHAR
STARTCHAR inc_arrow
ENCODING 4
SWIDTH 945 0
DWIDTH 19 0
BBX 19 20 0 -20
BITMAP
800060
800060
800060
800060
800060
800060
8ffc60
8ffc60
8ffc60
87f860
83f060
81e060
80c060
800060
800060
800060
800060
800060
ffffe0
ffffe0
ENDCHAR
STARTCHAR dec_iarrow
ENCODING 5
SWIDTH 945 0
DWIDTH 19 0
BBX 19 20 0 -20
BITMAP
ffffe0
800060
bfff60
bfff60
bfff60
bfff60
bf3f60
be1f60
bc0f60
b80760
b00360
b00360
b00360
bfff60
bfff60
bfff60
bfff60
bfff60
800060
ffffe0
ENDCHAR
STARTCHAR idrag_box
ENCODING 6
SWIDTH 945 0
DWIDTH 19 0
BBX 19 20 0 -20
BITMAP
800060
bfff60
bfff60
bfff60
bfff60
bfff60
bfff60
bfff60
bfff60
bfff60
bfff60
bfff60
bfff60
bfff60
bfff60
bfff60
bfff60
bfff60
800060
ffffe0
ENDCHAR
STARTCHAR inc_iarrow
ENCODING 7
SWIDTH 945 0
DWIDTH 19 0
BBX 19 20 0 -20
BITMAP
800060
bfff60
bfff60
bfff60
bfff60
bfff60
b00360
b00360
b00360
b80760
bc0f60
be1f60
bf3f60
bfff60
bfff60
bfff60
bfff60
800060
ffffe0
ffffe0
ENDCHAR
STARTCHAR anchwidth
ENCODING 8
SWIDTH 945 0
DWIDTH 19  0
BBX 19  1 0 -1
BITMAP
000000
ENDCHAR
STARTCHAR anchlen
ENCODING 9
SWIDTH 945 0
DWIDTH 10  0
BBX 10  1 0 -1
BITMAP
000000
ENDCHAR
STARTCHAR linewidth
ENCODING 10
SWIDTH 945 0
DWIDTH 1  0
BBX 1  1 0 -1
BITMAP
000000
ENDCHAR
STARTCHAR cablewidth
ENCODING 11
SWIDTH 945 0
DWIDTH 3  0
BBX 3  1 0 -1
BITMAP
000000
ENDCHAR
STARTCHAR anch_gap_len
ENCODING 12
SWIDTH 945 0
DWIDTH 3  0
BBX 3  1 0 -1
BITMAP
000000
ENDCHAR
STARTCHAR elev_part_len
ENCODING 13
SWIDTH 945 0
DWIDTH 20  0
BBX 20  1 0 -1
BITMAP
000000
ENDCHAR
ENDFONT
