STARTFONT 2.1
COMMENT
COMMENT @(#)r3Xolfonts:Xol/e12sldrv.bdf	1.2
COMMENT
COMMENT        Copyright (c) 1984 AT&T
COMMENT          All Rights Reserved
COMMENT
COMMENT THIS IS UNPUBLISHED PROPRIETARY SOURCE CODE OF AT&T
COMMENT The copyright notice above does not evidence any
COMMENT actual or intended publication of such source code.
COMMENT
COMMENT This font is used by the Xt+ toolkit to build the
COMMENT oblong OPEN LOOK buttons. The shine mark and more
COMMENT arrow are also in here.
COMMENT
COMMENT OPEN LOOK is a trademark of AT&T
COMMENT
FONT e12sldrv
SIZE 12 66 66
FONTBOUNDINGBOX 12 7 0 -7
STARTPROPERTIES 11
Copyright "Copyright (c) 1988 AT&T, Inc."
FONT_ASCENT 0
FONT_DESCENT 7
MIN_SPACE	10
NORM_SPACE	5
MAX_SPACE	1
END_SPACE	4
SUPERSCRIPT_X	2
SUPERSCRIPT_Y	7
SUBSCRIPT_X	12
SUBSCRIPT_Y	2
ENDPROPERTIES
COMMENT MIN_SPACE  == ANCHWIDTH
COMMENT NORM_SPACE == ANCHLEN
COMMENT MAX_SPACE  == LINEWIDTH
COMMENT END_SPACE  == CABLEWIDTH
COMMENT SUPERSCRIPT_X == ANCH_GAP_ELEV
COMMENT SUPERSCRIPT_Y == ELEV_PART_LEN
COMMENT SUBSCRIPT_X == ELEV_WIDTH
COMMENT SUBSCRIPT_Y == ROUNDLEN
CHARS 13
STARTCHAR drag_box
ENCODING 3
SWIDTH 945 0
DWIDTH 12 0
BBX 12 7 0 -7
BITMAP
fff0
8030
8030
8030
8030
fff0
fff0
ENDCHAR
STARTCHAR idrag_box
ENCODING 6
SWIDTH 945 0
DWIDTH 12 0
BBX 12 7 0 -7
BITMAP
fff0
8030
bfb0
bfb0
8030
fff0
fff0
ENDCHAR
STARTCHAR icable_tip1
ENCODING 8
SWIDTH 945 0
DWIDTH 12 0
BBX 12 2 0 -2
BITMAP
0600
0900
ENDCHAR
STARTCHAR icable_tip2
ENCODING 9
SWIDTH 945 0
DWIDTH 12 0
BBX 12 2 0 -2
BITMAP
0000
0600
ENDCHAR
STARTCHAR dcable_tip
ENCODING 10
SWIDTH 945 0
DWIDTH 12 0
BBX 12 2 0 -2
BITMAP
0f00
0600
ENDCHAR
STARTCHAR anchwidth
ENCODING 11
SWIDTH 945 0
DWIDTH 10  0
BBX 10  1 0 -1
BITMAP
000000
ENDCHAR
STARTCHAR anchlen
ENCODING 12
SWIDTH 945 0
DWIDTH 5  0
BBX 5  1 0 -1
BITMAP
000000
ENDCHAR
STARTCHAR linewidth
ENCODING 13
SWIDTH 945 0
DWIDTH 1  0
BBX 1  1 0 -1
BITMAP
000000
ENDCHAR
STARTCHAR cablewidth
ENCODING 14
SWIDTH 945 0
DWIDTH 4  0
BBX 4  1 0 -1
BITMAP
000000
ENDCHAR
STARTCHAR anch_gap_len
ENCODING 15
SWIDTH 945 0
DWIDTH 2  0
BBX 2  1 0 -1
BITMAP
000000
ENDCHAR
STARTCHAR elev_part_len
ENCODING 16
SWIDTH 945 0
DWIDTH 7  0
BBX 7  1 0 -1
BITMAP
000000
ENDCHAR
STARTCHAR elev_width
ENCODING 17
SWIDTH 945 0
DWIDTH 12  0
BBX 12  1 0 -1
BITMAP
000000
ENDCHAR
STARTCHAR roundlen
ENCODING 18
SWIDTH 945 0
DWIDTH 2  0
BBX 2  1 0 -1
BITMAP
000000
ENDCHAR
ENDFONT
