STARTFONT 2.1
COMMENT
COMMENT @(#)r3Xolfonts:Xol/f12sbarh.bdf	1.2
COMMENT
COMMENT        Copyright (c) 1984 AT&T
COMMENT          All Rights Reserved
COMMENT
COMMENT THIS IS UNPUBLISHED PROPRIETARY SOURCE CODE OF AT&T
COMMENT The copyright notice above does not evidence any
COMMENT actual or intended publication of such source code.
COMMENT
COMMENT This font is used by the Xt+ toolkit to build the
COMMENT oblong OPEN LOOK buttons. The shine mark and more
COMMENT arrow are also in here.
COMMENT
COMMENT OPEN LOOK is a trademark of AT&T
COMMENT
FONT f12sbarh
SIZE 12 66 66
FONTBOUNDINGBOX 12 13 0 -13
STARTPROPERTIES 9
Copyright "Copyright (c) 1988 AT&T, Inc."
FONT_ASCENT 0
FONT_DESCENT 13
MIN_SPACE	13
NORM_SPACE	7
MAX_SPACE	1
END_SPACE	2
SUPERSCRIPT_X	2
SUPERSCRIPT_Y	12
ENDPROPERTIES
COMMENT MIN_SPACE  == ANCHWIDTH
COMMENT NORM_SPACE == ANCHLEN
COMMENT MAX_SPACE  == LINEWIDTH
COMMENT END_SPACE  == CABLEWIDTH
COMMENT SUPERSCRIPT_X == ANCH_GAP_ELEV
COMMENT SUPERSCRIPT_Y == ELEV_PART_LEN
CHARS 13
STARTCHAR cable
ENCODING 1
SWIDTH 945 0
DWIDTH 12 0
BBX 2 13 0 -13
BITMAP
0000
0000
0000
0000
0000
8000
4000
0000
0000
0000
0000
0000
0000
ENDCHAR
STARTCHAR dec_arrow
ENCODING 2
SWIDTH 945 0
DWIDTH 12 0
BBX 12 13 0 -13
BITMAP
fff0
8010
8010
8190
8790
9f90
9f90
8790
8190
8010
8010
fff0
fff0
ENDCHAR
STARTCHAR drag_box
ENCODING 3
SWIDTH 945 0
DWIDTH 12 0
BBX 12 13 0 -13
BITMAP
fff0
0010
0010
0010
0010
0010
0010
0010
0010
0010
0010
fff0
fff0
ENDCHAR
STARTCHAR inc_arrow
ENCODING 4
SWIDTH 945 0
DWIDTH 12 0
BBX 12 13 0 -13
BITMAP
fff0
0030
0030
3030
3c30
3f30
3f30
3c30
3030
0030
0030
fff0
fff0
ENDCHAR
STARTCHAR dec_iarrow
ENCODING 5
SWIDTH 945 0
DWIDTH 12 0
BBX 12 13 0 -13
BITMAP
fff0
8010
bfd0
be50
b850
a050
a050
b850
be50
bfd0
8010
fff0
fff0
ENDCHAR
STARTCHAR idrag_box
ENCODING 6
SWIDTH 945 0
DWIDTH 12 0
BBX 12 13 0 -13
BITMAP
fff0
0010
7fd0
7fd0
7fd0
7fd0
7fd0
7fd0
7fd0
7fd0
0010
fff0
fff0
ENDCHAR
STARTCHAR inc_iarrow
ENCODING 7
SWIDTH 945 0
DWIDTH 12 0
BBX 12 13 0 -13
BITMAP
fff0
0030
7fb0
4fb0
43b0
40b0
40b0
43b0
4fb0
7fb0
0030
fff0
fff0
ENDCHAR
STARTCHAR anchwidth
ENCODING 8
SWIDTH 945 0
DWIDTH 13  0
BBX 13  1 0 -1
BITMAP
000000
ENDCHAR
STARTCHAR anchlen
ENCODING 9
SWIDTH 945 0
DWIDTH 7  0
BBX 7  1 0 -1
BITMAP
000000
ENDCHAR
STARTCHAR linewidth
ENCODING 10
SWIDTH 945 0
DWIDTH 1  0
BBX 1  1 0 -1
BITMAP
000000
ENDCHAR
STARTCHAR cablewidth
ENCODING 11
SWIDTH 945 0
DWIDTH 2  0
BBX 2  1 0 -1
BITMAP
000000
ENDCHAR
STARTCHAR anch_gap_len
ENCODING 12
SWIDTH 945 0
DWIDTH 2  0
BBX 2  1 0 -1
BITMAP
000000
ENDCHAR
STARTCHAR elev_part_len
ENCODING 13
SWIDTH 945 0
DWIDTH 12  0
BBX 12  1 0 -1
BITMAP
000000
ENDCHAR
ENDFONT
