STARTFONT 2.1
COMMENT
COMMENT @(#)r3Xolfonts:Xol/h12sbarh.bdf	1.2
COMMENT
COMMENT        Copyright (c) 1984 AT&T
COMMENT          All Rights Reserved
COMMENT
COMMENT THIS IS UNPUBLISHED PROPRIETARY SOURCE CODE OF AT&T
COMMENT The copyright notice above does not evidence any
COMMENT actual or intended publication of such source code.
COMMENT
COMMENT This font is used by the Xt+ toolkit to build the
COMMENT oblong OPEN LOOK buttons. The shine mark and more
COMMENT arrow are also in here.
COMMENT
COMMENT OPEN LOOK is a trademark of AT&T
COMMENT
FONT h12sbarh
SIZE 12 83 83
FONTBOUNDINGBOX 17 18 0 -18
STARTPROPERTIES 9
Copyright "Copyright (c) 1988 AT&T, Inc."
FONT_ASCENT 0
FONT_DESCENT 17
MIN_SPACE	17
NORM_SPACE	9
MAX_SPACE	1
END_SPACE	3
SUPERSCRIPT_X	3
SUPERSCRIPT_Y	18
ENDPROPERTIES
COMMENT MIN_SPACE  == ANCHWIDTH
COMMENT NORM_SPACE == ANCHLEN
COMMENT MAX_SPACE  == LINEWIDTH
COMMENT END_SPACE  == CABLEWIDTH
COMMENT SUPERSCRIPT_X == ANCH_GAP_ELEV
COMMENT SUPERSCRIPT_Y == ELEV_PART_LEN
CHARS 13
STARTCHAR cable
ENCODING 1
SWIDTH 945 0
DWIDTH 18 0
BBX 2 17 0 -17
BITMAP
000000
000000
000000
000000
000000
000000
000000
800000
400000
800000
000000
000000
000000
000000
000000
000000
000000
ENDCHAR
STARTCHAR dec_arrow
ENCODING 2
SWIDTH 945 0
DWIDTH 18 0
BBX 18 17 0 -17
BITMAP
ffffc0
800040
800040
803040
807040
80f040
81f040
83f040
83f040
81f040
80f040
807040
803040
800040
800040
ffffc0
ffffc0
ENDCHAR
STARTCHAR drag_box
ENCODING 3
SWIDTH 945 0
DWIDTH 18 0
BBX 18 17 0 -17
BITMAP
ffffc0
000040
000040
000040
000040
000040
000040
000040
000040
000040
000040
000040
000040
000040
000040
ffffc0
ffffc0
ENDCHAR
STARTCHAR inc_arrow
ENCODING 4
SWIDTH 945 0
DWIDTH 18 0
BBX 18 17 0 -17
BITMAP
ffffc0
0000c0
0000c0
0600c0
0700c0
0780c0
07c0c0
07e0c0
07e0c0
07c0c0
0780c0
0700c0
0600c0
0000c0
0000c0
ffffc0
ffffc0
ENDCHAR
STARTCHAR dec_iarrow
ENCODING 5
SWIDTH 945 0
DWIDTH 18 0
BBX 18 17 0 -17
BITMAP
ffffc0
800040
bfff40
bfcf40
bf8f40
bf0f40
be0f40
bc0f40
bc0f40
be0f40
bf0f40
bf8f40
bfcf40
bfff40
800040
ffffc0
ffffc0
ENDCHAR
STARTCHAR idrag_box
ENCODING 6
SWIDTH 945 0
DWIDTH 18 0
BBX 18 17 0 -17
BITMAP
ffffc0
000040
7fff40
7fff40
7fff40
7fff40
7fff40
7fff40
7fff40
7fff40
7fff40
7fff40
7fff40
7fff40
000040
ffffc0
ffffc0
ENDCHAR
STARTCHAR inc_iarrow
ENCODING 7
SWIDTH 945 0
DWIDTH 18 0
BBX 18 17 0 -17
BITMAP
ffffc0
0000c0
7ffec0
79fec0
78fec0
787ec0
783ec0
781ec0
781ec0
783ec0
787ec0
78fec0
79fec0
7ffec0
0000c0
ffffc0
ffffc0
ENDCHAR
STARTCHAR anchwidth
ENCODING 8
SWIDTH 945 0
DWIDTH 17  0
BBX 17  1 0 -1
BITMAP
000000
ENDCHAR
STARTCHAR anchlen
ENCODING 9
SWIDTH 945 0
DWIDTH 9  0
BBX 9  1 0 -1
BITMAP
000000
ENDCHAR
STARTCHAR linewidth
ENCODING 10
SWIDTH 945 0
DWIDTH 1  0
BBX 1  1 0 -1
BITMAP
000000
ENDCHAR
STARTCHAR cablewidth
ENCODING 11
SWIDTH 945 0
DWIDTH 3  0
BBX 3  1 0 -1
BITMAP
000000
ENDCHAR
STARTCHAR anch_gap_len
ENCODING 12
SWIDTH 945 0
DWIDTH 3  0
BBX 3  1 0 -1
BITMAP
000000
ENDCHAR
STARTCHAR elev_part_len
ENCODING 13
SWIDTH 945 0
DWIDTH 18  0
BBX 18  1 0 -1
BITMAP
000000
ENDCHAR
ENDFONT
