STARTFONT 2.1
COMMENT
COMMENT @(#)r3Xolfonts:Xol/h12sbarv.bdf	1.2
COMMENT
COMMENT        Copyright (c) 1984 AT&T
COMMENT          All Rights Reserved
COMMENT
COMMENT THIS IS UNPUBLISHED PROPRIETARY SOURCE CODE OF AT&T
COMMENT The copyright notice above does not evidence any
COMMENT actual or intended publication of such source code.
COMMENT
COMMENT This font is used by the Xt+ toolkit to build the
COMMENT oblong OPEN LOOK buttons. The shine mark and more
COMMENT arrow are also in here.
COMMENT
COMMENT OPEN LOOK is a trademark of AT&T
COMMENT
FONT h12sbarv
SIZE 12 83 83
FONTBOUNDINGBOX 17 18 0 -18
STARTPROPERTIES 9
Copyright "Copyright (c) 1988 AT&T, Inc."
FONT_ASCENT 0
FONT_DESCENT 18
MIN_SPACE	17
NORM_SPACE	10
MAX_SPACE	1
END_SPACE	3
SUPERSCRIPT_X	3
SUPERSCRIPT_Y	18
ENDPROPERTIES
COMMENT MIN_SPACE  == ANCHWIDTH
COMMENT NORM_SPACE == ANCHLEN
COMMENT MAX_SPACE  == LINEWIDTH
COMMENT END_SPACE  == CABLEWIDTH
COMMENT SUPERSCRIPT_X == ANCH_GAP_ELEV
COMMENT SUPERSCRIPT_Y == ELEV_PART_LEN
CHARS 13
STARTCHAR cable
ENCODING 1
SWIDTH 945 0
DWIDTH 17 0
BBX 17 2 0 -2
BITMAP
014000
008000
ENDCHAR
STARTCHAR dec_arrow
ENCODING 2
SWIDTH 945 0
DWIDTH 17 0
BBX 17 18 0 -18
BITMAP
ffff80
800180
800180
800180
800180
800180
818180
83c180
87e180
8ff180
9ff980
9ff980
800180
800180
800180
800180
800180
ffff80
ENDCHAR
STARTCHAR drag_box
ENCODING 3
SWIDTH 945 0
DWIDTH 17 0
BBX 17 18 0 -18
BITMAP
800180
800180
800180
800180
800180
800180
800180
800180
800180
800180
800180
800180
800180
800180
800180
800180
800180
ffff80
ENDCHAR
STARTCHAR inc_arrow
ENCODING 4
SWIDTH 945 0
DWIDTH 17 0
BBX 17 18 0 -18
BITMAP
800180
800180
800180
800180
800180
9ff980
9ff980
8ff180
87e180
83c180
818180
800180
800180
800180
800180
800180
ffff80
ffff80
ENDCHAR
STARTCHAR dec_iarrow
ENCODING 5
SWIDTH 945 0
DWIDTH 17 0
BBX 17 18 0 -18
BITMAP
ffff80
800180
bffd80
bffd80
bffd80
bffd80
be7d80
bc3d80
b81d80
b00d80
a00580
a00580
bffd80
bffd80
bffd80
bffd80
800180
ffff80
ENDCHAR
STARTCHAR idrag_box
ENCODING 6
SWIDTH 945 0
DWIDTH 17 0
BBX 17 18 0 -18
BITMAP
800180
bffd80
bffd80
bffd80
bffd80
bffd80
bffd80
bffd80
bffd80
bffd80
bffd80
bffd80
bffd80
bffd80
bffd80
bffd80
800180
ffff80
ENDCHAR
STARTCHAR inc_iarrow
ENCODING 7
SWIDTH 945 0
DWIDTH 17 0
BBX 17 18 0 -18
BITMAP
800180
bffd80
bffd80
bffd80
bffd80
a00580
a00580
b00d80
b81d80
bc3d80
be7d80
bffd80
bffd80
bffd80
bffd80
800180
ffff80
ffff80
ENDCHAR
STARTCHAR anchwidth
ENCODING 8
SWIDTH 945 0
DWIDTH 17  0
BBX 17  1 0 -1
BITMAP
000000
ENDCHAR
STARTCHAR anchlen
ENCODING 9
SWIDTH 945 0
DWIDTH 10  0
BBX 10  1 0 -1
BITMAP
000000
ENDCHAR
STARTCHAR linewidth
ENCODING 10
SWIDTH 945 0
DWIDTH 1  0
BBX 1  1 0 -1
BITMAP
000000
ENDCHAR
STARTCHAR cablewidth
ENCODING 11
SWIDTH 945 0
DWIDTH 3  0
BBX 3  1 0 -1
BITMAP
000000
ENDCHAR
STARTCHAR anch_gap_len
ENCODING 12
SWIDTH 945 0
DWIDTH 3  0
BBX 3  1 0 -1
BITMAP
000000
ENDCHAR
STARTCHAR elev_part_len
ENCODING 13
SWIDTH 945 0
DWIDTH 18  0
BBX 18  1 0 -1
BITMAP
000000
ENDCHAR
ENDFONT
