#define datadupe_drop_width 48
#define datadupe_drop_height 48
#define datadupe_drop_x_hot 9
#define datadupe_drop_y_hot 9
static char datadupe_drop_bits[] = {
   0x00, 0x00, 0x00, 0x00, 0x00, 0x00, 0x00, 0x00, 0x00, 0x00, 0x00, 0x00,
   0x80, 0x0f, 0x00, 0x00, 0x00, 0x00, 0xe0, 0x3f, 0x00, 0x00, 0x00, 0x00,
   0xf0, 0x7f, 0x00, 0x00, 0x00, 0x00, 0x78, 0xf0, 0x00, 0x00, 0x00, 0x00,
   0x38, 0xe0, 0x00, 0x00, 0x00, 0x00, 0x1c, 0xc7, 0x01, 0x00, 0x00, 0x00,
   0x9c, 0xcf, 0x01, 0x00, 0x00, 0x00, 0x9c, 0xcf, 0x01, 0x00, 0x00, 0x00,
   0x9c, 0xcf, 0x01, 0x00, 0x00, 0x00, 0x1c, 0xc7, 0x01, 0x00, 0x00, 0x00,
   0x38, 0xe0, 0x00, 0x00, 0x00, 0x00, 0x78, 0xf0, 0x00, 0x00, 0x00, 0x00,
   0xf0, 0xff, 0x00, 0x00, 0x00, 0x00, 0xe0, 0xff, 0x01, 0x00, 0x00, 0x00,
   0x80, 0x8f, 0x03, 0x00, 0x00, 0x00, 0x00, 0x00, 0xe7, 0xff, 0x3f, 0x00,
   0x00, 0x00, 0x1e, 0x00, 0x20, 0x00, 0x00, 0x00, 0x0c, 0x00, 0xa0, 0x00,
   0x00, 0x00, 0x04, 0x00, 0xa0, 0x00, 0x00, 0x00, 0x02, 0x00, 0xa0, 0x00,
   0x00, 0x00, 0x02, 0x00, 0xa0, 0x00, 0x00, 0x00, 0x02, 0x00, 0xa0, 0x00,
   0x00, 0x00, 0x02, 0x00, 0xa0, 0x00, 0x00, 0x00, 0x02, 0x00, 0xa0, 0x00,
   0x00, 0x00, 0x02, 0x00, 0xa0, 0x00, 0x00, 0x00, 0x02, 0x00, 0xa0, 0x00,
   0x00, 0x00, 0x02, 0x00, 0xa0, 0x00, 0x00, 0x00, 0x02, 0x00, 0xa0, 0x00,
   0x00, 0x00, 0x02, 0x00, 0xa0, 0x00, 0x00, 0x00, 0x02, 0x00, 0xa0, 0x00,
   0x00, 0x00, 0x02, 0x00, 0xa0, 0x00, 0x00, 0x00, 0xfe, 0xff, 0xbf, 0x00,
   0x00, 0x00, 0x00, 0x00, 0x80, 0x00, 0x00, 0x00, 0xf8, 0xff, 0xff, 0x00,
   0x00, 0x00, 0x00, 0x00, 0x00, 0x00, 0x00, 0x00, 0x00, 0x00, 0x00, 0x00,
   0x00, 0x00, 0x00, 0x00, 0x00, 0x00, 0x00, 0x00, 0x00, 0x00, 0x00, 0x00,
   0x00, 0x00, 0x00, 0x00, 0x00, 0x00, 0x00, 0x00, 0x00, 0x00, 0x00, 0x00,
   0x00, 0x00, 0x00, 0x00, 0x00, 0x00, 0x00, 0x00, 0x00, 0x00, 0x00, 0x00,
   0x00, 0x00, 0x00, 0x00, 0x00, 0x00, 0x00, 0x00, 0x00, 0x00, 0x00, 0x00,
   0x00, 0x00, 0x00, 0x00, 0x00, 0x00, 0x00, 0x00, 0x00, 0x00, 0x00, 0x00};
