#define datadupe_nodrop_width 48
#define datadupe_nodrop_height 48
#define datadupe_nodrop_x_hot 9
#define datadupe_nodrop_y_hot 9
static char datadupe_nodrop_bits[] = {
   0x00, 0x00, 0x00, 0x00, 0x00, 0x00, 0xc0, 0x0f, 0x00, 0x00, 0x00, 0x00,
   0xf0, 0x3f, 0x00, 0x00, 0x00, 0x00, 0xf8, 0x7f, 0x00, 0x00, 0x00, 0x00,
   0x7c, 0xf8, 0x00, 0x00, 0x00, 0x00, 0x1c, 0xfc, 0x00, 0x00, 0x00, 0x00,
   0x1e, 0xfe, 0x01, 0x00, 0x00, 0x00, 0x0e, 0xdf, 0x01, 0x00, 0x00, 0x00,
   0x8e, 0xcf, 0x01, 0x00, 0x00, 0x00, 0xce, 0xc7, 0x01, 0x00, 0x00, 0x00,
   0xee, 0xc3, 0x01, 0x00, 0x00, 0x00, 0xfe, 0xe1, 0x01, 0x00, 0x00, 0x00,
   0xfc, 0xe0, 0x00, 0x00, 0x00, 0x00, 0x7c, 0xf8, 0x00, 0x00, 0x00, 0x00,
   0xf8, 0xff, 0x00, 0x00, 0x00, 0x00, 0xf0, 0xff, 0x01, 0x00, 0x00, 0x00,
   0xc0, 0x8f, 0x03, 0x00, 0x00, 0x00, 0x00, 0x00, 0xe7, 0xff, 0x3f, 0x00,
   0x00, 0x00, 0x1e, 0x00, 0x20, 0x00, 0x00, 0x00, 0x0c, 0x00, 0xa0, 0x00,
   0x00, 0x00, 0x04, 0x00, 0xa0, 0x00, 0x00, 0x00, 0x02, 0x00, 0xa0, 0x00,
   0x00, 0x00, 0x02, 0x00, 0xa0, 0x00, 0x00, 0x00, 0x02, 0x00, 0xa0, 0x00,
   0x00, 0x00, 0x02, 0x00, 0xa0, 0x00, 0x00, 0x00, 0x02, 0x00, 0xa0, 0x00,
   0x00, 0x00, 0x02, 0x00, 0xa0, 0x00, 0x00, 0x00, 0x02, 0x00, 0xa0, 0x00,
   0x00, 0x00, 0x02, 0x00, 0xa0, 0x00, 0x00, 0x00, 0x02, 0x00, 0xa0, 0x00,
   0x00, 0x00, 0x02, 0x00, 0xa0, 0x00, 0x00, 0x00, 0x02, 0x00, 0xa0, 0x00,
   0x00, 0x00, 0x02, 0x00, 0xa0, 0x00, 0x00, 0x00, 0xfe, 0xff, 0xbf, 0x00,
   0x00, 0x00, 0x00, 0x00, 0x80, 0x00, 0x00, 0x00, 0xf8, 0xff, 0xff, 0x00,
   0x00, 0x00, 0x00, 0x00, 0x00, 0x00, 0x00, 0x00, 0x00, 0x00, 0x00, 0x00,
   0x00, 0x00, 0x00, 0x00, 0x00, 0x00, 0x00, 0x00, 0x00, 0x00, 0x00, 0x00,
   0x00, 0x00, 0x00, 0x00, 0x00, 0x00, 0x00, 0x00, 0x00, 0x00, 0x00, 0x00,
   0x00, 0x00, 0x00, 0x00, 0x00, 0x00, 0x00, 0x00, 0x00, 0x00, 0x00, 0x00,
   0x00, 0x00, 0x00, 0x00, 0x00, 0x00, 0x00, 0x00, 0x00, 0x00, 0x00, 0x00,
   0x00, 0x00, 0x00, 0x00, 0x00, 0x00, 0x00, 0x00, 0x00, 0x00, 0x00, 0x00};
