#define datadupe_drag_width 48
#define datadupe_drag_height 48
#define datadupe_drag_x_hot 9
#define datadupe_drag_y_hot 9
static char datadupe_drag_bits[] = {
   0x00, 0x00, 0x00, 0x00, 0x00, 0x00, 0x00, 0x00, 0x00, 0x00, 0x00, 0x00,
   0x00, 0x00, 0x00, 0x00, 0x00, 0x00, 0x00, 0x00, 0x00, 0x00, 0x00, 0x00,
   0x00, 0x00, 0x00, 0x00, 0x00, 0x00, 0x00, 0x00, 0x00, 0x00, 0x00, 0x00,
   0x00, 0x00, 0x00, 0x00, 0x00, 0x00, 0x00, 0x00, 0x00, 0x00, 0x00, 0x00,
   0x00, 0x00, 0x00, 0x00, 0x00, 0x00, 0x00, 0x06, 0x00, 0x00, 0x00, 0x00,
   0x00, 0x1e, 0x00, 0x00, 0x00, 0x00, 0x00, 0x7c, 0x00, 0x00, 0x00, 0x00,
   0x00, 0xfc, 0x01, 0x00, 0x00, 0x00, 0x00, 0xf8, 0x07, 0x00, 0x00, 0x00,
   0x00, 0xf8, 0x07, 0x00, 0x00, 0x00, 0x00, 0xf0, 0x01, 0x00, 0x00, 0x00,
   0x00, 0xf0, 0x03, 0x00, 0x00, 0x00, 0x00, 0x60, 0xe7, 0xff, 0x3f, 0x00,
   0x00, 0x60, 0x1e, 0x00, 0x20, 0x00, 0x00, 0x00, 0x0c, 0x00, 0xa0, 0x00,
   0x00, 0x00, 0x04, 0x00, 0xa0, 0x00, 0x00, 0x00, 0x02, 0x00, 0xa0, 0x00,
   0x00, 0x00, 0x02, 0x00, 0xa0, 0x00, 0x00, 0x00, 0x02, 0x00, 0xa0, 0x00,
   0x00, 0x00, 0x02, 0x00, 0xa0, 0x00, 0x00, 0x00, 0x02, 0x00, 0xa0, 0x00,
   0x00, 0x00, 0x02, 0x00, 0xa0, 0x00, 0x00, 0x00, 0x02, 0x00, 0xa0, 0x00,
   0x00, 0x00, 0x02, 0x00, 0xa0, 0x00, 0x00, 0x00, 0x02, 0x00, 0xa0, 0x00,
   0x00, 0x00, 0x02, 0x00, 0xa0, 0x00, 0x00, 0x00, 0x02, 0x00, 0xa0, 0x00,
   0x00, 0x00, 0x02, 0x00, 0xa0, 0x00, 0x00, 0x00, 0xfe, 0xff, 0xbf, 0x00,
   0x00, 0x00, 0x00, 0x00, 0x80, 0x00, 0x00, 0x00, 0xf8, 0xff, 0xff, 0x00,
   0x00, 0x00, 0x00, 0x00, 0x00, 0x00, 0x00, 0x00, 0x00, 0x00, 0x00, 0x00,
   0x00, 0x00, 0x00, 0x00, 0x00, 0x00, 0x00, 0x00, 0x00, 0x00, 0x00, 0x00,
   0x00, 0x00, 0x00, 0x00, 0x00, 0x00, 0x00, 0x00, 0x00, 0x00, 0x00, 0x00,
   0x00, 0x00, 0x00, 0x00, 0x00, 0x00, 0x00, 0x00, 0x00, 0x00, 0x00, 0x00,
   0x00, 0x00, 0x00, 0x00, 0x00, 0x00, 0x00, 0x00, 0x00, 0x00, 0x00, 0x00,
   0x00, 0x00, 0x00, 0x00, 0x00, 0x00, 0x00, 0x00, 0x00, 0x00, 0x00, 0x00};
