#define folderstack_width 48
#define folderstack_height 48
#define folderstack_x_hot 21
#define folderstack_y_hot 19
static char folderstack_bits[] = {
   0x00, 0x00, 0x00, 0x00, 0x00, 0x00, 0x00, 0xf8, 0x3f, 0x00, 0x00, 0x00,
   0x00, 0x04, 0x40, 0x00, 0x00, 0x00, 0xf8, 0xe3, 0xff, 0x3e, 0x00, 0x00,
   0x04, 0x10, 0x00, 0x41, 0x00, 0x00, 0xe2, 0x8f, 0xff, 0xfb, 0x00, 0x00,
   0x16, 0x40, 0x00, 0x04, 0x01, 0x00, 0x8a, 0x3f, 0x00, 0xf8, 0x03, 0x00,
   0x5a, 0x00, 0x00, 0x00, 0x04, 0x00, 0xaa, 0x7f, 0x00, 0xfc, 0x0b, 0x00,
   0x6a, 0x80, 0x00, 0x02, 0x0c, 0x00, 0x2a, 0x00, 0xff, 0x01, 0x18, 0x00,
   0x2a, 0x00, 0x00, 0x00, 0x18, 0x00, 0x2a, 0x00, 0x00, 0x00, 0x18, 0x00,
   0x2a, 0x00, 0x00, 0x00, 0x18, 0x00, 0x2a, 0x00, 0x00, 0x00, 0x18, 0x00,
   0x2a, 0x00, 0x00, 0x00, 0x18, 0x00, 0x2a, 0x00, 0x00, 0x00, 0x18, 0x00,
   0x2a, 0x00, 0x00, 0x00, 0x18, 0x00, 0x2a, 0x00, 0x00, 0x00, 0x18, 0x00,
   0x2a, 0x00, 0x00, 0x00, 0x18, 0x00, 0x2a, 0x00, 0x00, 0x00, 0x18, 0x00,
   0x2a, 0x00, 0x00, 0x00, 0x18, 0x00, 0x2a, 0x00, 0x00, 0x00, 0x18, 0x00,
   0x2e, 0x00, 0x00, 0x00, 0x18, 0x00, 0x2c, 0x00, 0x00, 0x00, 0x18, 0x00,
   0x38, 0x00, 0x00, 0x00, 0x18, 0x00, 0x30, 0x00, 0x00, 0x00, 0x18, 0x00,
   0xe0, 0xff, 0xff, 0xff, 0x1f, 0x00, 0xc0, 0xff, 0xff, 0xff, 0x1f, 0x00,
   0x00, 0x00, 0x00, 0x00, 0x00, 0x00, 0x00, 0x00, 0x00, 0x00, 0x00, 0x00,
   0x00, 0x00, 0x00, 0x00, 0x00, 0x00, 0x00, 0x00, 0x00, 0x00, 0x00, 0x00,
   0x00, 0x00, 0x00, 0x00, 0x00, 0x00, 0x00, 0x00, 0x00, 0x00, 0x00, 0x00,
   0x00, 0x00, 0x00, 0x00, 0x00, 0x00, 0x00, 0x00, 0x00, 0x00, 0x00, 0x00,
   0x00, 0x00, 0x00, 0x00, 0x00, 0x00, 0x00, 0x00, 0x00, 0x00, 0x00, 0x00,
   0x00, 0x00, 0x00, 0x00, 0x00, 0x00, 0x00, 0x00, 0x00, 0x00, 0x00, 0x00,
   0x00, 0x00, 0x00, 0x00, 0x00, 0x00, 0x00, 0x00, 0x00, 0x00, 0x00, 0x00,
   0x00, 0x00, 0x00, 0x00, 0x00, 0x00, 0x00, 0x00, 0x00, 0x00, 0x00, 0x00,
   0x00, 0x00, 0x00, 0x00, 0x00, 0x00, 0x00, 0x00, 0x00, 0x00, 0x00, 0x00};
