#define folder_width 48
#define folder_height 48
#define folder_x_hot 21
#define folder_y_hot 19
static char folder_bits[] = {
   0x00, 0x00, 0x00, 0x00, 0x00, 0x00, 0x00, 0x00, 0x00, 0x00, 0x00, 0x00,
   0x00, 0x00, 0x00, 0x00, 0x00, 0x00, 0x00, 0x00, 0x00, 0x00, 0x00, 0x00,
   0x00, 0x00, 0x00, 0x00, 0x00, 0x00, 0x00, 0x80, 0xff, 0x03, 0x00, 0x00,
   0x00, 0x40, 0x00, 0x04, 0x00, 0x00, 0x80, 0x3f, 0x00, 0xf8, 0x03, 0x00,
   0x40, 0x00, 0x00, 0x00, 0x04, 0x00, 0xa0, 0x7f, 0x00, 0xfc, 0x0b, 0x00,
   0x60, 0x80, 0x00, 0x02, 0x0c, 0x00, 0x20, 0x00, 0xff, 0x01, 0x18, 0x00,
   0x20, 0x00, 0x00, 0x00, 0x18, 0x00, 0x20, 0x00, 0x00, 0x00, 0x18, 0x00,
   0x20, 0x00, 0x00, 0x00, 0x18, 0x00, 0x20, 0x00, 0x00, 0x00, 0x18, 0x00,
   0x20, 0x00, 0x00, 0x00, 0x18, 0x00, 0x20, 0x00, 0x00, 0x00, 0x18, 0x00,
   0x20, 0x00, 0x00, 0x00, 0x18, 0x00, 0x20, 0x00, 0x00, 0x00, 0x18, 0x00,
   0x20, 0x00, 0x00, 0x00, 0x18, 0x00, 0x20, 0x00, 0x00, 0x00, 0x18, 0x00,
   0x20, 0x00, 0x00, 0x00, 0x18, 0x00, 0x20, 0x00, 0x00, 0x00, 0x18, 0x00,
   0x20, 0x00, 0x00, 0x00, 0x18, 0x00, 0x20, 0x00, 0x00, 0x00, 0x18, 0x00,
   0x20, 0x00, 0x00, 0x00, 0x18, 0x00, 0x20, 0x00, 0x00, 0x00, 0x18, 0x00,
   0xe0, 0xff, 0xff, 0xff, 0x1f, 0x00, 0xc0, 0xff, 0xff, 0xff, 0x1f, 0x00,
   0x00, 0x00, 0x00, 0x00, 0x00, 0x00, 0x00, 0x00, 0x00, 0x00, 0x00, 0x00,
   0x00, 0x00, 0x00, 0x00, 0x00, 0x00, 0x00, 0x00, 0x00, 0x00, 0x00, 0x00,
   0x00, 0x00, 0x00, 0x00, 0x00, 0x00, 0x00, 0x00, 0x00, 0x00, 0x00, 0x00,
   0x00, 0x00, 0x00, 0x00, 0x00, 0x00, 0x00, 0x00, 0x00, 0x00, 0x00, 0x00,
   0x00, 0x00, 0x00, 0x00, 0x00, 0x00, 0x00, 0x00, 0x00, 0x00, 0x00, 0x00,
   0x00, 0x00, 0x00, 0x00, 0x00, 0x00, 0x00, 0x00, 0x00, 0x00, 0x00, 0x00,
   0x00, 0x00, 0x00, 0x00, 0x00, 0x00, 0x00, 0x00, 0x00, 0x00, 0x00, 0x00,
   0x00, 0x00, 0x00, 0x00, 0x00, 0x00, 0x00, 0x00, 0x00, 0x00, 0x00, 0x00,
   0x00, 0x00, 0x00, 0x00, 0x00, 0x00, 0x00, 0x00, 0x00, 0x00, 0x00, 0x00};
