#define clock_rom_xbm_width 64
#define clock_rom_xbm_height 64
static const unsigned char clock_rom_xbm_bits[] = {
   0x00, 0x00, 0x00, 0x00, 0x00, 0x00, 0x00, 0x00, 0x00, 0x00, 0x00, 0x00,
   0x00, 0x00, 0x00, 0x00, 0x00, 0x00, 0x00, 0x00, 0x00, 0x00, 0x00, 0x00,
   0x00, 0x40, 0x0a, 0x90, 0x0a, 0x80, 0x00, 0x00, 0x00, 0x80, 0x09, 0x60,
   0x0a, 0x80, 0x00, 0x00, 0x00, 0x80, 0x09, 0x60, 0x0a, 0x80, 0x00, 0x00,
   0x00, 0x80, 0x09, 0x60, 0x0a, 0x80, 0x00, 0x00, 0x00, 0x40, 0x0a, 0x90,
   0x0a, 0x80, 0x00, 0x00, 0x00, 0x00, 0x00, 0x00, 0x00, 0x00, 0x00, 0x00,
   0x00, 0x00, 0x00, 0x00, 0x00, 0x00, 0x00, 0x00, 0x00, 0x00, 0x00, 0x00,
   0x00, 0x00, 0x00, 0x00, 0x00, 0x00, 0x00, 0x00, 0x00, 0x00, 0x00, 0x00,
   0x00, 0x00, 0x00, 0x00, 0x00, 0x00, 0x00, 0x00, 0x00, 0x00, 0x00, 0x00,
   0x00, 0x00, 0x00, 0x00, 0x00, 0x00, 0x00, 0x00, 0x00, 0x00, 0x00, 0x00,
   0x20, 0x01, 0x00, 0x00, 0x00, 0x00, 0x00, 0x05, 0xc0, 0x00, 0x00, 0x00,
   0x00, 0x00, 0x00, 0x05, 0xc0, 0x00, 0x00, 0x00, 0x00, 0x00, 0x00, 0x05,
   0xc0, 0x00, 0x00, 0x00, 0x00, 0x00, 0x00, 0x05, 0x20, 0x01, 0x00, 0x00,
   0x00, 0x00, 0x00, 0x05, 0x00, 0x00, 0x00, 0x00, 0x00, 0x00, 0x00, 0x00,
   0x00, 0x00, 0x00, 0x00, 0x00, 0x00, 0x00, 0x00, 0x00, 0x00, 0x00, 0x00,
   0x00, 0x00, 0x00, 0x00, 0x00, 0x00, 0x00, 0x00, 0x00, 0x00, 0x00, 0x00,
   0x00, 0x00, 0x00, 0x00, 0x00, 0x00, 0x00, 0x00, 0x00, 0x00, 0x00, 0x00,
   0x00, 0x00, 0x00, 0x00, 0x00, 0x00, 0x00, 0x00, 0x00, 0x00, 0x00, 0x00,
   0x00, 0x00, 0x00, 0x00, 0x00, 0x00, 0x00, 0x00, 0x00, 0x00, 0x00, 0x00,
   0x00, 0x00, 0x00, 0x00, 0x50, 0x02, 0x00, 0x00, 0x00, 0x00, 0x80, 0x0a,
   0x90, 0x01, 0x00, 0xc0, 0x03, 0x00, 0x80, 0x0a, 0x90, 0x01, 0x00, 0xc0,
   0x03, 0x00, 0x80, 0x0a, 0x90, 0x01, 0x00, 0xc0, 0x03, 0x00, 0x80, 0x0a,
   0x50, 0x02, 0x00, 0xc0, 0x03, 0x00, 0x80, 0x0a, 0x00, 0x00, 0x00, 0x00,
   0x00, 0x00, 0x00, 0x00, 0x00, 0x00, 0x00, 0x00, 0x00, 0x00, 0x00, 0x00,
   0x00, 0x00, 0x00, 0x00, 0x00, 0x00, 0x00, 0x00, 0x00, 0x00, 0x00, 0x00,
   0x00, 0x00, 0x00, 0x00, 0x00, 0x00, 0x00, 0x00, 0x00, 0x00, 0x00, 0x00,
   0x00, 0x00, 0x00, 0x00, 0x00, 0x00, 0x00, 0x00, 0x00, 0x00, 0x00, 0x00,
   0x00, 0x00, 0x00, 0x00, 0x00, 0x00, 0x00, 0x00, 0x00, 0x00, 0x00, 0x00,
   0x00, 0x00, 0x00, 0x00, 0x00, 0x00, 0x00, 0x00, 0x00, 0x00, 0x00, 0x00,
   0x00, 0x00, 0x00, 0x00, 0x88, 0x2a, 0x00, 0x00, 0x00, 0x00, 0x40, 0x15,
   0x88, 0x2a, 0x00, 0x00, 0x00, 0x00, 0x40, 0x15, 0x50, 0x2a, 0x00, 0x00,
   0x00, 0x00, 0x40, 0x15, 0x50, 0x2a, 0x00, 0x00, 0x00, 0x00, 0x40, 0x15,
   0x20, 0x2a, 0x00, 0x00, 0x00, 0x00, 0x40, 0x15, 0x00, 0x00, 0x00, 0x00,
   0x00, 0x00, 0x00, 0x00, 0x00, 0x00, 0x00, 0x00, 0x00, 0x00, 0x00, 0x00,
   0x00, 0x00, 0x00, 0x00, 0x00, 0x00, 0x00, 0x00, 0x00, 0x00, 0x00, 0x00,
   0x00, 0x00, 0x00, 0x00, 0x00, 0x00, 0x00, 0x00, 0x00, 0x00, 0x00, 0x00,
   0x00, 0x00, 0x00, 0x00, 0x00, 0x00, 0x00, 0x00, 0x00, 0x00, 0x00, 0x00,
   0x00, 0x00, 0x00, 0x00, 0x00, 0x10, 0x15, 0x20, 0x0a, 0x20, 0x02, 0x00,
   0x00, 0x10, 0x15, 0x20, 0x0a, 0x20, 0x02, 0x00, 0x00, 0xa0, 0x14, 0x40,
   0x09, 0x40, 0x01, 0x00, 0x00, 0xa0, 0x14, 0x40, 0x09, 0x40, 0x01, 0x00,
   0x00, 0x40, 0x14, 0x80, 0x08, 0x80, 0x00, 0x00, 0x00, 0x00, 0x00, 0x00,
   0x00, 0x00, 0x00, 0x00, 0x00, 0x00, 0x00, 0x00, 0x00, 0x00, 0x00, 0x00,
   0x00, 0x00, 0x00, 0x00, 0x00, 0x00, 0x00, 0x00};
